G04 EAGLE Gerber RS-274X export*
G75*
%MOMM*%
%FSLAX34Y34*%
%LPD*%
%INBottom Copper*%
%IPPOS*%
%AMOC8*
5,1,8,0,0,1.08239X$1,22.5*%
G01*
G04 Define Apertures*
%ADD10C,1.800000*%
%ADD11C,1.500000*%
%ADD12R,1.500000X1.500000*%
%ADD13C,1.320800*%
%ADD14R,1.508000X1.508000*%
%ADD15C,0.756400*%
%ADD16C,0.152400*%
G36*
X420413Y10982D02*
X420116Y10922D01*
X11684Y10922D01*
X11409Y10973D01*
X11154Y11137D01*
X10982Y11387D01*
X10922Y11684D01*
X10922Y369316D01*
X10973Y369591D01*
X11137Y369846D01*
X11387Y370018D01*
X11684Y370078D01*
X420116Y370078D01*
X420391Y370027D01*
X420646Y369863D01*
X420818Y369613D01*
X420878Y369316D01*
X420878Y11684D01*
X420827Y11409D01*
X420663Y11154D01*
X420413Y10982D01*
G37*
%LPC*%
G36*
X253053Y61214D02*
X331147Y61214D01*
X345186Y75253D01*
X345186Y331147D01*
X318447Y357886D01*
X240353Y357886D01*
X221954Y339487D01*
X221713Y339324D01*
X221415Y339264D01*
X207729Y339264D01*
X206836Y338371D01*
X206836Y322029D01*
X207729Y321136D01*
X224071Y321136D01*
X224964Y322029D01*
X224964Y335715D01*
X225020Y336001D01*
X225187Y336254D01*
X242024Y353091D01*
X242265Y353254D01*
X242563Y353314D01*
X316237Y353314D01*
X316523Y353258D01*
X316776Y353091D01*
X340391Y329476D01*
X340554Y329235D01*
X340614Y328937D01*
X340614Y77463D01*
X340558Y77177D01*
X340391Y76924D01*
X329476Y66009D01*
X329235Y65846D01*
X328937Y65786D01*
X255263Y65786D01*
X254977Y65842D01*
X254724Y66009D01*
X243809Y76924D01*
X243646Y77165D01*
X243586Y77463D01*
X243586Y86470D01*
X243639Y86751D01*
X243805Y87005D01*
X244056Y87174D01*
X246412Y88150D01*
X248950Y90688D01*
X250324Y94005D01*
X250324Y97595D01*
X248950Y100912D01*
X246412Y103450D01*
X243095Y104824D01*
X239505Y104824D01*
X236188Y103450D01*
X233650Y100912D01*
X232276Y97595D01*
X232276Y94005D01*
X233650Y90688D01*
X236188Y88150D01*
X238544Y87174D01*
X238782Y87018D01*
X238954Y86767D01*
X239014Y86470D01*
X239014Y75253D01*
X253053Y61214D01*
G37*
G36*
X36483Y326898D02*
X39717Y326898D01*
X42704Y328135D01*
X44991Y330422D01*
X46228Y333409D01*
X46228Y349851D01*
X44991Y352838D01*
X42704Y355125D01*
X39717Y356362D01*
X36483Y356362D01*
X33496Y355125D01*
X31209Y352838D01*
X29972Y349851D01*
X29972Y333409D01*
X31209Y330422D01*
X33496Y328135D01*
X36483Y326898D01*
G37*
G36*
X180420Y330962D02*
X189738Y330962D01*
X189738Y340280D01*
X181908Y340280D01*
X180420Y338792D01*
X180420Y330962D01*
G37*
G36*
X191262Y330962D02*
X200580Y330962D01*
X200580Y338792D01*
X199092Y340280D01*
X191262Y340280D01*
X191262Y330962D01*
G37*
G36*
X285353Y73914D02*
X305747Y73914D01*
X319786Y87953D01*
X319786Y254947D01*
X250587Y324146D01*
X250424Y324387D01*
X250364Y324685D01*
X250364Y338371D01*
X249471Y339264D01*
X233129Y339264D01*
X232236Y338371D01*
X232236Y322029D01*
X233129Y321136D01*
X246815Y321136D01*
X247101Y321080D01*
X247354Y320913D01*
X314991Y253276D01*
X315154Y253035D01*
X315214Y252737D01*
X315214Y90163D01*
X315158Y89877D01*
X314991Y89624D01*
X304076Y78709D01*
X303835Y78546D01*
X303537Y78486D01*
X287563Y78486D01*
X287277Y78542D01*
X287024Y78709D01*
X274914Y90819D01*
X274753Y91055D01*
X274690Y91352D01*
X274748Y91650D01*
X275724Y94005D01*
X275724Y97595D01*
X274350Y100912D01*
X271812Y103450D01*
X268495Y104824D01*
X264905Y104824D01*
X261588Y103450D01*
X259050Y100912D01*
X257676Y97595D01*
X257676Y94005D01*
X259050Y90688D01*
X261588Y88150D01*
X264905Y86776D01*
X268495Y86776D01*
X270850Y87752D01*
X271130Y87810D01*
X271428Y87754D01*
X271681Y87586D01*
X285353Y73914D01*
G37*
G36*
X258529Y321136D02*
X274871Y321136D01*
X275764Y322029D01*
X275764Y338371D01*
X274871Y339264D01*
X258529Y339264D01*
X257636Y338371D01*
X257636Y322029D01*
X258529Y321136D01*
G37*
G36*
X214105Y112176D02*
X217695Y112176D01*
X221012Y113550D01*
X223550Y116088D01*
X224924Y119405D01*
X224924Y122995D01*
X223550Y126312D01*
X221012Y128850D01*
X218656Y129826D01*
X218418Y129982D01*
X218246Y130233D01*
X218186Y130530D01*
X218186Y138437D01*
X218242Y138723D01*
X218409Y138976D01*
X229324Y149891D01*
X229565Y150054D01*
X229863Y150114D01*
X252737Y150114D01*
X253023Y150058D01*
X253276Y149891D01*
X264191Y138976D01*
X264354Y138735D01*
X264414Y138437D01*
X264414Y130530D01*
X264361Y130249D01*
X264195Y129995D01*
X263944Y129826D01*
X261588Y128850D01*
X259050Y126312D01*
X257676Y122995D01*
X257676Y119405D01*
X259050Y116088D01*
X261588Y113550D01*
X264905Y112176D01*
X268495Y112176D01*
X271812Y113550D01*
X274350Y116088D01*
X275724Y119405D01*
X275724Y122995D01*
X274350Y126312D01*
X271812Y128850D01*
X269456Y129826D01*
X269218Y129982D01*
X269046Y130233D01*
X268986Y130530D01*
X268986Y140647D01*
X254947Y154686D01*
X227653Y154686D01*
X216439Y143472D01*
X216208Y143314D01*
X215912Y143249D01*
X215614Y143304D01*
X215361Y143472D01*
X167609Y191224D01*
X167446Y191465D01*
X167386Y191763D01*
X167386Y320374D01*
X167437Y320649D01*
X167601Y320904D01*
X167851Y321076D01*
X168148Y321136D01*
X173271Y321136D01*
X174164Y322029D01*
X174164Y338371D01*
X173271Y339264D01*
X156929Y339264D01*
X156036Y338371D01*
X156036Y322029D01*
X156929Y321136D01*
X162052Y321136D01*
X162327Y321085D01*
X162582Y320921D01*
X162754Y320671D01*
X162814Y320374D01*
X162814Y189553D01*
X213391Y138976D01*
X213554Y138735D01*
X213614Y138437D01*
X213614Y130530D01*
X213561Y130249D01*
X213395Y129995D01*
X213144Y129826D01*
X210788Y128850D01*
X208250Y126312D01*
X206876Y122995D01*
X206876Y119405D01*
X208250Y116088D01*
X210788Y113550D01*
X214105Y112176D01*
G37*
G36*
X191262Y320120D02*
X199092Y320120D01*
X200580Y321608D01*
X200580Y329438D01*
X191262Y329438D01*
X191262Y320120D01*
G37*
G36*
X181908Y320120D02*
X189738Y320120D01*
X189738Y329438D01*
X180420Y329438D01*
X180420Y321608D01*
X181908Y320120D01*
G37*
G36*
X28956Y266192D02*
X37338Y266192D01*
X37338Y281178D01*
X36281Y281178D01*
X32920Y279786D01*
X30348Y277214D01*
X28956Y273853D01*
X28956Y266192D01*
G37*
G36*
X38862Y266192D02*
X47244Y266192D01*
X47244Y273853D01*
X45852Y277214D01*
X43280Y279786D01*
X39919Y281178D01*
X38862Y281178D01*
X38862Y266192D01*
G37*
G36*
X366207Y256176D02*
X370393Y256176D01*
X374261Y257778D01*
X377222Y260739D01*
X378824Y264607D01*
X378824Y268793D01*
X377222Y272661D01*
X374261Y275622D01*
X370393Y277224D01*
X366207Y277224D01*
X362339Y275622D01*
X359378Y272661D01*
X357776Y268793D01*
X357776Y264607D01*
X359378Y260739D01*
X362339Y257778D01*
X366207Y256176D01*
G37*
G36*
X36281Y249682D02*
X37338Y249682D01*
X37338Y264668D01*
X28956Y264668D01*
X28956Y257007D01*
X30348Y253646D01*
X32920Y251074D01*
X36281Y249682D01*
G37*
G36*
X38862Y249682D02*
X39919Y249682D01*
X43280Y251074D01*
X45852Y253646D01*
X47244Y257007D01*
X47244Y264668D01*
X38862Y264668D01*
X38862Y249682D01*
G37*
G36*
X366207Y205376D02*
X370393Y205376D01*
X374261Y206978D01*
X377222Y209939D01*
X378824Y213807D01*
X378824Y217993D01*
X377222Y221861D01*
X374261Y224822D01*
X370393Y226424D01*
X366207Y226424D01*
X362339Y224822D01*
X359378Y221861D01*
X357776Y217993D01*
X357776Y213807D01*
X359378Y209939D01*
X362339Y206978D01*
X366207Y205376D01*
G37*
G36*
X112102Y210594D02*
X116498Y210594D01*
X119295Y213391D01*
X119536Y213554D01*
X119833Y213614D01*
X121467Y213614D01*
X121753Y213558D01*
X122005Y213391D01*
X124802Y210594D01*
X129198Y210594D01*
X132306Y213702D01*
X132306Y218098D01*
X129198Y221206D01*
X124802Y221206D01*
X122005Y218409D01*
X121764Y218246D01*
X121467Y218186D01*
X119833Y218186D01*
X119547Y218242D01*
X119295Y218409D01*
X116498Y221206D01*
X112102Y221206D01*
X108994Y218098D01*
X108994Y213702D01*
X112102Y210594D01*
G37*
G36*
X385479Y149098D02*
X401921Y149098D01*
X404908Y150335D01*
X407195Y152622D01*
X408432Y155609D01*
X408432Y158843D01*
X407195Y161830D01*
X404908Y164117D01*
X401921Y165354D01*
X385479Y165354D01*
X382492Y164117D01*
X380205Y161830D01*
X378968Y158843D01*
X378968Y155609D01*
X380205Y152622D01*
X382492Y150335D01*
X385479Y149098D01*
G37*
G36*
X385479Y123698D02*
X401921Y123698D01*
X404908Y124935D01*
X407195Y127222D01*
X408432Y130209D01*
X408432Y133443D01*
X407195Y136430D01*
X404908Y138717D01*
X401921Y139954D01*
X385479Y139954D01*
X382492Y138717D01*
X380205Y136430D01*
X378968Y133443D01*
X378968Y130209D01*
X380205Y127222D01*
X382492Y124935D01*
X385479Y123698D01*
G37*
G36*
X290305Y112176D02*
X293895Y112176D01*
X297212Y113550D01*
X299750Y116088D01*
X301124Y119405D01*
X301124Y122995D01*
X299750Y126312D01*
X297212Y128850D01*
X293895Y130224D01*
X290305Y130224D01*
X286988Y128850D01*
X284450Y126312D01*
X283076Y122995D01*
X283076Y119405D01*
X284450Y116088D01*
X286988Y113550D01*
X290305Y112176D01*
G37*
G36*
X239505Y112176D02*
X243095Y112176D01*
X246412Y113550D01*
X248950Y116088D01*
X250324Y119405D01*
X250324Y122995D01*
X248950Y126312D01*
X246412Y128850D01*
X243095Y130224D01*
X239505Y130224D01*
X236188Y128850D01*
X233650Y126312D01*
X232276Y122995D01*
X232276Y119405D01*
X233650Y116088D01*
X236188Y113550D01*
X239505Y112176D01*
G37*
G36*
X385479Y98298D02*
X401921Y98298D01*
X404908Y99535D01*
X407195Y101822D01*
X408432Y104809D01*
X408432Y108043D01*
X407195Y111030D01*
X404908Y113317D01*
X401921Y114554D01*
X385479Y114554D01*
X382492Y113317D01*
X380205Y111030D01*
X378968Y108043D01*
X378968Y104809D01*
X380205Y101822D01*
X382492Y99535D01*
X385479Y98298D01*
G37*
G36*
X282060Y96562D02*
X291338Y96562D01*
X291338Y105840D01*
X283548Y105840D01*
X282060Y104352D01*
X282060Y96562D01*
G37*
G36*
X292862Y96562D02*
X302140Y96562D01*
X302140Y104352D01*
X300652Y105840D01*
X292862Y105840D01*
X292862Y96562D01*
G37*
G36*
X214105Y86776D02*
X217695Y86776D01*
X221012Y88150D01*
X223550Y90688D01*
X224924Y94005D01*
X224924Y97595D01*
X223550Y100912D01*
X221012Y103450D01*
X217695Y104824D01*
X214105Y104824D01*
X210788Y103450D01*
X208250Y100912D01*
X206876Y97595D01*
X206876Y94005D01*
X208250Y90688D01*
X210788Y88150D01*
X214105Y86776D01*
G37*
G36*
X292862Y85760D02*
X300652Y85760D01*
X302140Y87248D01*
X302140Y95038D01*
X292862Y95038D01*
X292862Y85760D01*
G37*
G36*
X283548Y85760D02*
X291338Y85760D01*
X291338Y95038D01*
X282060Y95038D01*
X282060Y87248D01*
X283548Y85760D01*
G37*
G36*
X385479Y72898D02*
X401921Y72898D01*
X404908Y74135D01*
X407195Y76422D01*
X408432Y79409D01*
X408432Y82643D01*
X407195Y85630D01*
X404908Y87917D01*
X401921Y89154D01*
X385479Y89154D01*
X382492Y87917D01*
X380205Y85630D01*
X378968Y82643D01*
X378968Y79409D01*
X380205Y76422D01*
X382492Y74135D01*
X385479Y72898D01*
G37*
G36*
X385479Y47498D02*
X401921Y47498D01*
X404908Y48735D01*
X407195Y51022D01*
X408432Y54009D01*
X408432Y57243D01*
X407195Y60230D01*
X404908Y62517D01*
X401921Y63754D01*
X385479Y63754D01*
X382492Y62517D01*
X380205Y60230D01*
X378968Y57243D01*
X378968Y54009D01*
X380205Y51022D01*
X382492Y48735D01*
X385479Y47498D01*
G37*
G36*
X377952Y30988D02*
X392938Y30988D01*
X392938Y39370D01*
X385277Y39370D01*
X381916Y37978D01*
X379344Y35406D01*
X377952Y32045D01*
X377952Y30988D01*
G37*
G36*
X394462Y30988D02*
X409448Y30988D01*
X409448Y32045D01*
X408056Y35406D01*
X405484Y37978D01*
X402123Y39370D01*
X394462Y39370D01*
X394462Y30988D01*
G37*
G36*
X394462Y21082D02*
X402123Y21082D01*
X405484Y22474D01*
X408056Y25046D01*
X409448Y28407D01*
X409448Y29464D01*
X394462Y29464D01*
X394462Y21082D01*
G37*
G36*
X385277Y21082D02*
X392938Y21082D01*
X392938Y29464D01*
X377952Y29464D01*
X377952Y28407D01*
X379344Y25046D01*
X381916Y22474D01*
X385277Y21082D01*
G37*
%LPD*%
G36*
X420413Y10982D02*
X420116Y10922D01*
X11684Y10922D01*
X11409Y10973D01*
X11154Y11137D01*
X10982Y11387D01*
X10922Y11684D01*
X10922Y316738D01*
X10973Y317013D01*
X11137Y317268D01*
X11387Y317440D01*
X11684Y317500D01*
X162052Y317500D01*
X162327Y317449D01*
X162582Y317285D01*
X162754Y317035D01*
X162814Y316738D01*
X162814Y189553D01*
X213391Y138976D01*
X213554Y138735D01*
X213614Y138437D01*
X213614Y130530D01*
X213561Y130249D01*
X213395Y129995D01*
X213144Y129826D01*
X210788Y128850D01*
X208250Y126312D01*
X206876Y122995D01*
X206876Y119405D01*
X208250Y116088D01*
X210788Y113550D01*
X214105Y112176D01*
X217695Y112176D01*
X221012Y113550D01*
X223550Y116088D01*
X224924Y119405D01*
X224924Y122995D01*
X223550Y126312D01*
X221012Y128850D01*
X218656Y129826D01*
X218418Y129982D01*
X218246Y130233D01*
X218186Y130530D01*
X218186Y138437D01*
X218242Y138723D01*
X218409Y138976D01*
X229324Y149891D01*
X229565Y150054D01*
X229863Y150114D01*
X252737Y150114D01*
X253023Y150058D01*
X253276Y149891D01*
X264191Y138976D01*
X264354Y138735D01*
X264414Y138437D01*
X264414Y130530D01*
X264361Y130249D01*
X264195Y129995D01*
X263944Y129826D01*
X261588Y128850D01*
X259050Y126312D01*
X257676Y122995D01*
X257676Y119405D01*
X259050Y116088D01*
X261588Y113550D01*
X264905Y112176D01*
X268495Y112176D01*
X271812Y113550D01*
X274350Y116088D01*
X275724Y119405D01*
X275724Y122995D01*
X274350Y126312D01*
X271812Y128850D01*
X269456Y129826D01*
X269218Y129982D01*
X269046Y130233D01*
X268986Y130530D01*
X268986Y140647D01*
X254947Y154686D01*
X227653Y154686D01*
X216439Y143472D01*
X216208Y143314D01*
X215912Y143249D01*
X215614Y143304D01*
X215361Y143472D01*
X167609Y191224D01*
X167446Y191465D01*
X167386Y191763D01*
X167386Y316738D01*
X167437Y317013D01*
X167601Y317268D01*
X167851Y317440D01*
X168148Y317500D01*
X250451Y317500D01*
X250737Y317444D01*
X250990Y317277D01*
X314991Y253276D01*
X315154Y253035D01*
X315214Y252737D01*
X315214Y90163D01*
X315158Y89877D01*
X314991Y89624D01*
X304076Y78709D01*
X303835Y78546D01*
X303537Y78486D01*
X287563Y78486D01*
X287277Y78542D01*
X287024Y78709D01*
X274914Y90819D01*
X274753Y91055D01*
X274690Y91352D01*
X274748Y91650D01*
X275724Y94005D01*
X275724Y97595D01*
X274350Y100912D01*
X271812Y103450D01*
X268495Y104824D01*
X264905Y104824D01*
X261588Y103450D01*
X259050Y100912D01*
X257676Y97595D01*
X257676Y94005D01*
X259050Y90688D01*
X261588Y88150D01*
X264905Y86776D01*
X268495Y86776D01*
X270850Y87752D01*
X271130Y87810D01*
X271428Y87754D01*
X271681Y87586D01*
X285353Y73914D01*
X305747Y73914D01*
X319786Y87953D01*
X319786Y254947D01*
X258534Y316199D01*
X258381Y316419D01*
X258311Y316714D01*
X258362Y317013D01*
X258525Y317268D01*
X258775Y317440D01*
X259073Y317500D01*
X339852Y317500D01*
X340127Y317449D01*
X340382Y317285D01*
X340554Y317035D01*
X340614Y316738D01*
X340614Y77463D01*
X340558Y77177D01*
X340391Y76924D01*
X329476Y66009D01*
X329235Y65846D01*
X328937Y65786D01*
X255263Y65786D01*
X254977Y65842D01*
X254724Y66009D01*
X243809Y76924D01*
X243646Y77165D01*
X243586Y77463D01*
X243586Y86470D01*
X243639Y86751D01*
X243805Y87005D01*
X244056Y87174D01*
X246412Y88150D01*
X248950Y90688D01*
X250324Y94005D01*
X250324Y97595D01*
X248950Y100912D01*
X246412Y103450D01*
X243095Y104824D01*
X239505Y104824D01*
X236188Y103450D01*
X233650Y100912D01*
X232276Y97595D01*
X232276Y94005D01*
X233650Y90688D01*
X236188Y88150D01*
X238544Y87174D01*
X238782Y87018D01*
X238954Y86767D01*
X239014Y86470D01*
X239014Y75253D01*
X253053Y61214D01*
X331147Y61214D01*
X345186Y75253D01*
X345186Y316738D01*
X345237Y317013D01*
X345401Y317268D01*
X345651Y317440D01*
X345948Y317500D01*
X420116Y317500D01*
X420391Y317449D01*
X420646Y317285D01*
X420818Y317035D01*
X420878Y316738D01*
X420878Y11684D01*
X420827Y11409D01*
X420663Y11154D01*
X420413Y10982D01*
G37*
%LPC*%
G36*
X28956Y266192D02*
X37338Y266192D01*
X37338Y281178D01*
X36281Y281178D01*
X32920Y279786D01*
X30348Y277214D01*
X28956Y273853D01*
X28956Y266192D01*
G37*
G36*
X38862Y266192D02*
X47244Y266192D01*
X47244Y273853D01*
X45852Y277214D01*
X43280Y279786D01*
X39919Y281178D01*
X38862Y281178D01*
X38862Y266192D01*
G37*
G36*
X366207Y256176D02*
X370393Y256176D01*
X374261Y257778D01*
X377222Y260739D01*
X378824Y264607D01*
X378824Y268793D01*
X377222Y272661D01*
X374261Y275622D01*
X370393Y277224D01*
X366207Y277224D01*
X362339Y275622D01*
X359378Y272661D01*
X357776Y268793D01*
X357776Y264607D01*
X359378Y260739D01*
X362339Y257778D01*
X366207Y256176D01*
G37*
G36*
X38862Y249682D02*
X39919Y249682D01*
X43280Y251074D01*
X45852Y253646D01*
X47244Y257007D01*
X47244Y264668D01*
X38862Y264668D01*
X38862Y249682D01*
G37*
G36*
X36281Y249682D02*
X37338Y249682D01*
X37338Y264668D01*
X28956Y264668D01*
X28956Y257007D01*
X30348Y253646D01*
X32920Y251074D01*
X36281Y249682D01*
G37*
G36*
X366207Y205376D02*
X370393Y205376D01*
X374261Y206978D01*
X377222Y209939D01*
X378824Y213807D01*
X378824Y217993D01*
X377222Y221861D01*
X374261Y224822D01*
X370393Y226424D01*
X366207Y226424D01*
X362339Y224822D01*
X359378Y221861D01*
X357776Y217993D01*
X357776Y213807D01*
X359378Y209939D01*
X362339Y206978D01*
X366207Y205376D01*
G37*
G36*
X112102Y210594D02*
X116498Y210594D01*
X119295Y213391D01*
X119536Y213554D01*
X119833Y213614D01*
X121467Y213614D01*
X121753Y213558D01*
X122005Y213391D01*
X124802Y210594D01*
X129198Y210594D01*
X132306Y213702D01*
X132306Y218098D01*
X129198Y221206D01*
X124802Y221206D01*
X122005Y218409D01*
X121764Y218246D01*
X121467Y218186D01*
X119833Y218186D01*
X119547Y218242D01*
X119295Y218409D01*
X116498Y221206D01*
X112102Y221206D01*
X108994Y218098D01*
X108994Y213702D01*
X112102Y210594D01*
G37*
G36*
X385479Y149098D02*
X401921Y149098D01*
X404908Y150335D01*
X407195Y152622D01*
X408432Y155609D01*
X408432Y158843D01*
X407195Y161830D01*
X404908Y164117D01*
X401921Y165354D01*
X385479Y165354D01*
X382492Y164117D01*
X380205Y161830D01*
X378968Y158843D01*
X378968Y155609D01*
X380205Y152622D01*
X382492Y150335D01*
X385479Y149098D01*
G37*
G36*
X385479Y123698D02*
X401921Y123698D01*
X404908Y124935D01*
X407195Y127222D01*
X408432Y130209D01*
X408432Y133443D01*
X407195Y136430D01*
X404908Y138717D01*
X401921Y139954D01*
X385479Y139954D01*
X382492Y138717D01*
X380205Y136430D01*
X378968Y133443D01*
X378968Y130209D01*
X380205Y127222D01*
X382492Y124935D01*
X385479Y123698D01*
G37*
G36*
X290305Y112176D02*
X293895Y112176D01*
X297212Y113550D01*
X299750Y116088D01*
X301124Y119405D01*
X301124Y122995D01*
X299750Y126312D01*
X297212Y128850D01*
X293895Y130224D01*
X290305Y130224D01*
X286988Y128850D01*
X284450Y126312D01*
X283076Y122995D01*
X283076Y119405D01*
X284450Y116088D01*
X286988Y113550D01*
X290305Y112176D01*
G37*
G36*
X239505Y112176D02*
X243095Y112176D01*
X246412Y113550D01*
X248950Y116088D01*
X250324Y119405D01*
X250324Y122995D01*
X248950Y126312D01*
X246412Y128850D01*
X243095Y130224D01*
X239505Y130224D01*
X236188Y128850D01*
X233650Y126312D01*
X232276Y122995D01*
X232276Y119405D01*
X233650Y116088D01*
X236188Y113550D01*
X239505Y112176D01*
G37*
G36*
X385479Y98298D02*
X401921Y98298D01*
X404908Y99535D01*
X407195Y101822D01*
X408432Y104809D01*
X408432Y108043D01*
X407195Y111030D01*
X404908Y113317D01*
X401921Y114554D01*
X385479Y114554D01*
X382492Y113317D01*
X380205Y111030D01*
X378968Y108043D01*
X378968Y104809D01*
X380205Y101822D01*
X382492Y99535D01*
X385479Y98298D01*
G37*
G36*
X282060Y96562D02*
X291338Y96562D01*
X291338Y105840D01*
X283548Y105840D01*
X282060Y104352D01*
X282060Y96562D01*
G37*
G36*
X292862Y96562D02*
X302140Y96562D01*
X302140Y104352D01*
X300652Y105840D01*
X292862Y105840D01*
X292862Y96562D01*
G37*
G36*
X214105Y86776D02*
X217695Y86776D01*
X221012Y88150D01*
X223550Y90688D01*
X224924Y94005D01*
X224924Y97595D01*
X223550Y100912D01*
X221012Y103450D01*
X217695Y104824D01*
X214105Y104824D01*
X210788Y103450D01*
X208250Y100912D01*
X206876Y97595D01*
X206876Y94005D01*
X208250Y90688D01*
X210788Y88150D01*
X214105Y86776D01*
G37*
G36*
X292862Y85760D02*
X300652Y85760D01*
X302140Y87248D01*
X302140Y95038D01*
X292862Y95038D01*
X292862Y85760D01*
G37*
G36*
X283548Y85760D02*
X291338Y85760D01*
X291338Y95038D01*
X282060Y95038D01*
X282060Y87248D01*
X283548Y85760D01*
G37*
G36*
X385479Y72898D02*
X401921Y72898D01*
X404908Y74135D01*
X407195Y76422D01*
X408432Y79409D01*
X408432Y82643D01*
X407195Y85630D01*
X404908Y87917D01*
X401921Y89154D01*
X385479Y89154D01*
X382492Y87917D01*
X380205Y85630D01*
X378968Y82643D01*
X378968Y79409D01*
X380205Y76422D01*
X382492Y74135D01*
X385479Y72898D01*
G37*
G36*
X385479Y47498D02*
X401921Y47498D01*
X404908Y48735D01*
X407195Y51022D01*
X408432Y54009D01*
X408432Y57243D01*
X407195Y60230D01*
X404908Y62517D01*
X401921Y63754D01*
X385479Y63754D01*
X382492Y62517D01*
X380205Y60230D01*
X378968Y57243D01*
X378968Y54009D01*
X380205Y51022D01*
X382492Y48735D01*
X385479Y47498D01*
G37*
G36*
X377952Y30988D02*
X392938Y30988D01*
X392938Y39370D01*
X385277Y39370D01*
X381916Y37978D01*
X379344Y35406D01*
X377952Y32045D01*
X377952Y30988D01*
G37*
G36*
X394462Y30988D02*
X409448Y30988D01*
X409448Y32045D01*
X408056Y35406D01*
X405484Y37978D01*
X402123Y39370D01*
X394462Y39370D01*
X394462Y30988D01*
G37*
G36*
X394462Y21082D02*
X402123Y21082D01*
X405484Y22474D01*
X408056Y25046D01*
X409448Y28407D01*
X409448Y29464D01*
X394462Y29464D01*
X394462Y21082D01*
G37*
G36*
X385277Y21082D02*
X392938Y21082D01*
X392938Y29464D01*
X377952Y29464D01*
X377952Y28407D01*
X379344Y25046D01*
X381916Y22474D01*
X385277Y21082D01*
G37*
%LPD*%
D10*
X368300Y266700D03*
X368300Y215900D03*
D11*
X215900Y95800D03*
X241300Y95800D03*
X266700Y95800D03*
D12*
X292100Y95800D03*
D11*
X292100Y121200D03*
X266700Y121200D03*
X241300Y121200D03*
X215900Y121200D03*
D13*
X387096Y157226D02*
X400304Y157226D01*
X400304Y131826D02*
X387096Y131826D01*
X387096Y106426D02*
X400304Y106426D01*
X400304Y81026D02*
X387096Y81026D01*
X387096Y55626D02*
X400304Y55626D01*
X400304Y30226D02*
X387096Y30226D01*
D14*
X215900Y330200D03*
X241300Y330200D03*
X266700Y330200D03*
X190500Y330200D03*
X165100Y330200D03*
D13*
X38100Y272034D02*
X38100Y258826D01*
X38100Y335026D02*
X38100Y348234D01*
D15*
X114300Y215900D03*
X127000Y215900D03*
D16*
X114300Y215900D01*
X215900Y139700D02*
X215900Y121200D01*
X215900Y139700D02*
X228600Y152400D01*
X254000Y152400D01*
X266700Y139700D01*
X266700Y121200D01*
X165100Y190500D02*
X165100Y330200D01*
X165100Y190500D02*
X215900Y139700D01*
D15*
X38100Y203200D03*
D16*
X266700Y95800D02*
X286300Y76200D01*
X304800Y76200D01*
X317500Y88900D01*
X317500Y254000D01*
X241300Y330200D01*
X241300Y95800D02*
X241300Y76200D01*
X254000Y63500D01*
X330200Y63500D01*
X342900Y76200D01*
X342900Y330200D01*
X317500Y355600D01*
X241300Y355600D01*
X215900Y330200D01*
M02*
