G04 EAGLE Gerber RS-274X export*
G75*
%MOMM*%
%FSLAX34Y34*%
%LPD*%
%INSilkscreen Top*%
%IPPOS*%
%AMOC8*
5,1,8,0,0,1.08239X$1,22.5*%
G01*
G04 Define Apertures*
%ADD10C,0.120000*%
%ADD11C,0.080000*%
%ADD12C,0.565681*%
%ADD13C,0.127000*%
%ADD14C,0.152400*%
%ADD15C,0.200000*%
%ADD16R,1.524000X1.905000*%
G36*
X126564Y229960D02*
X125224Y229960D01*
X125224Y233104D01*
X115730Y233104D01*
X117718Y230319D01*
X116229Y230319D01*
X114223Y233235D01*
X114223Y234689D01*
X125224Y234689D01*
X125224Y237693D01*
X126564Y237693D01*
X126564Y229960D01*
G37*
G36*
X126564Y220096D02*
X114223Y220096D01*
X114223Y221769D01*
X125198Y221769D01*
X125198Y228005D01*
X126564Y228005D01*
X126564Y220096D01*
G37*
G36*
X92899Y243440D02*
X92651Y243452D01*
X92419Y243489D01*
X92203Y243550D01*
X92003Y243635D01*
X91819Y243745D01*
X91650Y243878D01*
X91498Y244037D01*
X91362Y244219D01*
X91241Y244425D01*
X91137Y244654D01*
X91048Y244904D01*
X90976Y245177D01*
X90920Y245473D01*
X90880Y245791D01*
X90856Y246131D01*
X90848Y246493D01*
X90856Y246864D01*
X90879Y247210D01*
X90918Y247532D01*
X90973Y247831D01*
X91043Y248105D01*
X91129Y248355D01*
X91230Y248582D01*
X91347Y248785D01*
X91481Y248963D01*
X91633Y249118D01*
X91803Y249249D01*
X91991Y249356D01*
X92197Y249440D01*
X92421Y249499D01*
X92664Y249535D01*
X92924Y249547D01*
X93178Y249535D01*
X93414Y249499D01*
X93633Y249438D01*
X93835Y249354D01*
X94020Y249246D01*
X94188Y249113D01*
X94338Y248957D01*
X94472Y248776D01*
X94589Y248572D01*
X94690Y248344D01*
X94776Y248094D01*
X94846Y247820D01*
X94901Y247523D01*
X94940Y247203D01*
X94963Y246860D01*
X94971Y246493D01*
X94963Y246133D01*
X94938Y245794D01*
X94897Y245477D01*
X94840Y245183D01*
X94766Y244910D01*
X94676Y244659D01*
X94569Y244430D01*
X94446Y244224D01*
X94308Y244040D01*
X94153Y243881D01*
X93983Y243746D01*
X93797Y243636D01*
X93596Y243550D01*
X93379Y243489D01*
X93147Y243452D01*
X92899Y243440D01*
G37*
%LPC*%
G36*
X92907Y244059D02*
X93069Y244069D01*
X93220Y244097D01*
X93359Y244143D01*
X93487Y244209D01*
X93604Y244293D01*
X93710Y244396D01*
X93805Y244517D01*
X93888Y244657D01*
X93961Y244817D01*
X94025Y244996D01*
X94122Y245415D01*
X94181Y245914D01*
X94200Y246493D01*
X94182Y247092D01*
X94126Y247601D01*
X94033Y248022D01*
X93973Y248200D01*
X93903Y248355D01*
X93823Y248490D01*
X93731Y248607D01*
X93626Y248707D01*
X93510Y248788D01*
X93382Y248851D01*
X93241Y248896D01*
X93089Y248923D01*
X92924Y248932D01*
X92755Y248923D01*
X92599Y248896D01*
X92455Y248852D01*
X92323Y248790D01*
X92204Y248710D01*
X92097Y248612D01*
X92002Y248497D01*
X91920Y248363D01*
X91848Y248210D01*
X91786Y248033D01*
X91734Y247834D01*
X91691Y247612D01*
X91633Y247098D01*
X91614Y246493D01*
X91634Y245904D01*
X91692Y245400D01*
X91735Y245179D01*
X91788Y244980D01*
X91851Y244802D01*
X91924Y244645D01*
X92007Y244507D01*
X92101Y244389D01*
X92207Y244288D01*
X92324Y244206D01*
X92453Y244142D01*
X92593Y244096D01*
X92744Y244068D01*
X92907Y244059D01*
G37*
%LPD*%
G36*
X70929Y243524D02*
X70125Y243524D01*
X70125Y249458D01*
X72622Y249458D01*
X72865Y249451D01*
X73093Y249429D01*
X73307Y249393D01*
X73507Y249341D01*
X73694Y249276D01*
X73866Y249195D01*
X74024Y249100D01*
X74168Y248991D01*
X74296Y248868D01*
X74407Y248733D01*
X74501Y248586D01*
X74578Y248428D01*
X74638Y248257D01*
X74681Y248074D01*
X74707Y247879D01*
X74715Y247673D01*
X74707Y247468D01*
X74681Y247273D01*
X74638Y247090D01*
X74578Y246917D01*
X74500Y246755D01*
X74406Y246604D01*
X74294Y246463D01*
X74166Y246333D01*
X74022Y246217D01*
X73866Y246116D01*
X73698Y246031D01*
X73517Y245961D01*
X73325Y245906D01*
X73120Y245868D01*
X72902Y245844D01*
X72673Y245837D01*
X70929Y245837D01*
X70929Y243524D01*
G37*
%LPC*%
G36*
X72559Y246472D02*
X72875Y246491D01*
X73148Y246547D01*
X73380Y246640D01*
X73570Y246770D01*
X73717Y246938D01*
X73822Y247143D01*
X73885Y247385D01*
X73907Y247664D01*
X73885Y247934D01*
X73820Y248167D01*
X73712Y248365D01*
X73561Y248527D01*
X73367Y248652D01*
X73129Y248742D01*
X72849Y248796D01*
X72525Y248814D01*
X70929Y248814D01*
X70929Y246472D01*
X72559Y246472D01*
G37*
%LPD*%
G36*
X83419Y243440D02*
X83176Y243452D01*
X82947Y243487D01*
X82733Y243545D01*
X82534Y243627D01*
X82350Y243731D01*
X82181Y243860D01*
X82026Y244011D01*
X81886Y244186D01*
X81761Y244383D01*
X81654Y244601D01*
X81562Y244840D01*
X81488Y245101D01*
X81430Y245382D01*
X81388Y245685D01*
X81363Y246009D01*
X81355Y246355D01*
X81364Y246729D01*
X81390Y247080D01*
X81433Y247410D01*
X81493Y247717D01*
X81571Y248002D01*
X81665Y248264D01*
X81778Y248504D01*
X81907Y248721D01*
X82052Y248915D01*
X82212Y249082D01*
X82386Y249224D01*
X82575Y249340D01*
X82779Y249431D01*
X82997Y249495D01*
X83230Y249534D01*
X83478Y249547D01*
X83798Y249528D01*
X84087Y249471D01*
X84345Y249377D01*
X84573Y249245D01*
X84769Y249075D01*
X84934Y248867D01*
X85068Y248621D01*
X85171Y248338D01*
X84446Y248208D01*
X84382Y248377D01*
X84302Y248524D01*
X84204Y248649D01*
X84090Y248751D01*
X83960Y248830D01*
X83813Y248887D01*
X83649Y248921D01*
X83469Y248932D01*
X83312Y248922D01*
X83163Y248894D01*
X83024Y248847D01*
X82894Y248781D01*
X82773Y248696D01*
X82661Y248592D01*
X82558Y248469D01*
X82465Y248328D01*
X82381Y248168D01*
X82309Y247992D01*
X82248Y247798D01*
X82198Y247588D01*
X82159Y247361D01*
X82131Y247117D01*
X82109Y246578D01*
X82223Y246758D01*
X82357Y246915D01*
X82513Y247050D01*
X82690Y247161D01*
X82884Y247249D01*
X83092Y247311D01*
X83314Y247349D01*
X83549Y247361D01*
X83749Y247353D01*
X83939Y247329D01*
X84118Y247289D01*
X84286Y247233D01*
X84443Y247160D01*
X84590Y247072D01*
X84727Y246968D01*
X84853Y246847D01*
X84966Y246713D01*
X85064Y246568D01*
X85147Y246412D01*
X85214Y246245D01*
X85267Y246067D01*
X85305Y245878D01*
X85327Y245677D01*
X85335Y245466D01*
X85327Y245237D01*
X85303Y245021D01*
X85263Y244817D01*
X85208Y244626D01*
X85136Y244447D01*
X85048Y244280D01*
X84945Y244125D01*
X84825Y243983D01*
X84692Y243856D01*
X84546Y243746D01*
X84389Y243652D01*
X84219Y243576D01*
X84037Y243517D01*
X83843Y243474D01*
X83637Y243449D01*
X83419Y243440D01*
G37*
%LPC*%
G36*
X83393Y244051D02*
X83652Y244074D01*
X83882Y244143D01*
X84082Y244258D01*
X84253Y244419D01*
X84389Y244621D01*
X84486Y244857D01*
X84545Y245127D01*
X84564Y245432D01*
X84544Y245736D01*
X84485Y246003D01*
X84387Y246233D01*
X84248Y246426D01*
X84075Y246579D01*
X83870Y246688D01*
X83635Y246754D01*
X83368Y246776D01*
X83116Y246756D01*
X82889Y246698D01*
X82687Y246602D01*
X82511Y246466D01*
X82368Y246297D01*
X82266Y246098D01*
X82205Y245870D01*
X82185Y245613D01*
X82206Y245286D01*
X82270Y244989D01*
X82375Y244723D01*
X82524Y244489D01*
X82705Y244297D01*
X82911Y244160D01*
X83140Y244078D01*
X83264Y244058D01*
X83393Y244051D01*
G37*
%LPD*%
G36*
X78073Y243440D02*
X77809Y243446D01*
X77559Y243464D01*
X77324Y243493D01*
X77103Y243534D01*
X76896Y243587D01*
X76703Y243652D01*
X76524Y243729D01*
X76360Y243817D01*
X76210Y243917D01*
X76074Y244029D01*
X75953Y244153D01*
X75845Y244288D01*
X75752Y244436D01*
X75674Y244595D01*
X75609Y244765D01*
X75559Y244948D01*
X76338Y245104D01*
X76424Y244854D01*
X76548Y244640D01*
X76711Y244461D01*
X76911Y244318D01*
X77149Y244209D01*
X77428Y244130D01*
X77745Y244083D01*
X78102Y244068D01*
X78470Y244084D01*
X78793Y244135D01*
X79071Y244218D01*
X79305Y244335D01*
X79490Y244485D01*
X79622Y244665D01*
X79669Y244767D01*
X79702Y244877D01*
X79721Y244995D01*
X79728Y245121D01*
X79720Y245259D01*
X79695Y245384D01*
X79653Y245495D01*
X79595Y245592D01*
X79436Y245758D01*
X79223Y245891D01*
X78960Y246000D01*
X78650Y246089D01*
X77913Y246262D01*
X77294Y246418D01*
X76845Y246574D01*
X76520Y246738D01*
X76271Y246921D01*
X76085Y247129D01*
X75948Y247369D01*
X75900Y247503D01*
X75865Y247645D01*
X75844Y247797D01*
X75837Y247959D01*
X75846Y248144D01*
X75873Y248318D01*
X75919Y248482D01*
X75983Y248634D01*
X76065Y248775D01*
X76165Y248906D01*
X76283Y249025D01*
X76420Y249134D01*
X76574Y249231D01*
X76743Y249315D01*
X76928Y249386D01*
X77129Y249444D01*
X77346Y249489D01*
X77578Y249521D01*
X77826Y249540D01*
X78090Y249547D01*
X78565Y249527D01*
X78982Y249469D01*
X79338Y249373D01*
X79635Y249237D01*
X79764Y249153D01*
X79883Y249055D01*
X80090Y248819D01*
X80258Y248528D01*
X80385Y248182D01*
X79593Y248043D01*
X79513Y248263D01*
X79404Y248450D01*
X79265Y248605D01*
X79096Y248728D01*
X78896Y248821D01*
X78659Y248887D01*
X78388Y248927D01*
X78081Y248940D01*
X77747Y248926D01*
X77454Y248881D01*
X77203Y248808D01*
X76995Y248704D01*
X76831Y248572D01*
X76714Y248411D01*
X76643Y248220D01*
X76620Y248001D01*
X76629Y247870D01*
X76656Y247751D01*
X76702Y247644D01*
X76765Y247548D01*
X76943Y247383D01*
X77184Y247245D01*
X77355Y247180D01*
X77594Y247107D01*
X78275Y246940D01*
X78821Y246811D01*
X79086Y246740D01*
X79341Y246656D01*
X79581Y246557D01*
X79806Y246443D01*
X80009Y246307D01*
X80183Y246144D01*
X80326Y245951D01*
X80434Y245727D01*
X80501Y245466D01*
X80524Y245163D01*
X80514Y244963D01*
X80484Y244775D01*
X80434Y244599D01*
X80363Y244434D01*
X80273Y244281D01*
X80163Y244139D01*
X80032Y244009D01*
X79882Y243891D01*
X79713Y243785D01*
X79528Y243694D01*
X79326Y243616D01*
X79108Y243553D01*
X78874Y243504D01*
X78624Y243468D01*
X78356Y243447D01*
X78073Y243440D01*
G37*
G36*
X88134Y243440D02*
X87915Y243447D01*
X87706Y243466D01*
X87510Y243497D01*
X87324Y243542D01*
X87150Y243599D01*
X86987Y243669D01*
X86836Y243751D01*
X86696Y243847D01*
X86569Y243954D01*
X86455Y244074D01*
X86355Y244206D01*
X86268Y244350D01*
X86195Y244507D01*
X86136Y244675D01*
X86090Y244856D01*
X86058Y245049D01*
X86841Y245121D01*
X86895Y244874D01*
X86979Y244660D01*
X87094Y244479D01*
X87240Y244331D01*
X87418Y244216D01*
X87626Y244134D01*
X87864Y244084D01*
X88134Y244068D01*
X88405Y244085D01*
X88646Y244138D01*
X88855Y244226D01*
X89033Y244350D01*
X89176Y244508D01*
X89278Y244700D01*
X89339Y244927D01*
X89360Y245188D01*
X89337Y245417D01*
X89267Y245619D01*
X89150Y245795D01*
X88987Y245944D01*
X88780Y246063D01*
X88532Y246148D01*
X88242Y246199D01*
X87911Y246216D01*
X87482Y246216D01*
X87482Y246873D01*
X87894Y246873D01*
X88188Y246889D01*
X88448Y246940D01*
X88672Y247025D01*
X88861Y247144D01*
X89011Y247293D01*
X89118Y247468D01*
X89183Y247669D01*
X89204Y247896D01*
X89187Y248121D01*
X89134Y248322D01*
X89047Y248497D01*
X88924Y248648D01*
X88767Y248768D01*
X88576Y248855D01*
X88351Y248906D01*
X88092Y248923D01*
X87854Y248907D01*
X87639Y248859D01*
X87448Y248779D01*
X87282Y248667D01*
X87143Y248525D01*
X87037Y248357D01*
X86963Y248163D01*
X86921Y247942D01*
X86159Y248001D01*
X86187Y248178D01*
X86229Y248345D01*
X86284Y248503D01*
X86352Y248650D01*
X86435Y248787D01*
X86531Y248914D01*
X86640Y249031D01*
X86764Y249138D01*
X87042Y249317D01*
X87195Y249387D01*
X87358Y249445D01*
X87530Y249489D01*
X87711Y249521D01*
X87901Y249540D01*
X88101Y249547D01*
X88318Y249540D01*
X88522Y249521D01*
X88714Y249488D01*
X88894Y249443D01*
X89061Y249385D01*
X89216Y249313D01*
X89358Y249229D01*
X89488Y249132D01*
X89604Y249023D01*
X89705Y248904D01*
X89790Y248775D01*
X89859Y248636D01*
X89914Y248486D01*
X89952Y248326D01*
X89975Y248156D01*
X89983Y247976D01*
X89963Y247705D01*
X89904Y247461D01*
X89804Y247243D01*
X89665Y247052D01*
X89488Y246888D01*
X89275Y246753D01*
X89026Y246647D01*
X88741Y246569D01*
X88741Y246552D01*
X89055Y246498D01*
X89332Y246405D01*
X89573Y246274D01*
X89777Y246106D01*
X89939Y245907D01*
X90055Y245683D01*
X90124Y245435D01*
X90147Y245163D01*
X90139Y244963D01*
X90115Y244775D01*
X90074Y244599D01*
X90017Y244434D01*
X89943Y244281D01*
X89854Y244139D01*
X89748Y244009D01*
X89625Y243891D01*
X89488Y243785D01*
X89336Y243694D01*
X89171Y243616D01*
X88991Y243553D01*
X88798Y243504D01*
X88591Y243468D01*
X88370Y243447D01*
X88134Y243440D01*
G37*
G36*
X97728Y243440D02*
X97508Y243447D01*
X97300Y243466D01*
X97103Y243497D01*
X96918Y243542D01*
X96744Y243599D01*
X96581Y243669D01*
X96430Y243751D01*
X96290Y243847D01*
X96162Y243954D01*
X96049Y244074D01*
X95948Y244206D01*
X95862Y244350D01*
X95789Y244507D01*
X95730Y244675D01*
X95684Y244856D01*
X95652Y245049D01*
X96435Y245121D01*
X96489Y244874D01*
X96573Y244660D01*
X96688Y244479D01*
X96834Y244331D01*
X97011Y244216D01*
X97219Y244134D01*
X97458Y244084D01*
X97728Y244068D01*
X97999Y244085D01*
X98239Y244138D01*
X98449Y244226D01*
X98627Y244350D01*
X98770Y244508D01*
X98872Y244700D01*
X98933Y244927D01*
X98954Y245188D01*
X98930Y245417D01*
X98860Y245619D01*
X98744Y245795D01*
X98581Y245944D01*
X98374Y246063D01*
X98126Y246148D01*
X97836Y246199D01*
X97505Y246216D01*
X97075Y246216D01*
X97075Y246873D01*
X97488Y246873D01*
X97782Y246889D01*
X98041Y246940D01*
X98265Y247025D01*
X98455Y247144D01*
X98605Y247293D01*
X98712Y247468D01*
X98776Y247669D01*
X98798Y247896D01*
X98780Y248121D01*
X98728Y248322D01*
X98640Y248497D01*
X98518Y248648D01*
X98361Y248768D01*
X98170Y248855D01*
X97945Y248906D01*
X97686Y248923D01*
X97447Y248907D01*
X97233Y248859D01*
X97042Y248779D01*
X96875Y248667D01*
X96737Y248525D01*
X96630Y248357D01*
X96557Y248163D01*
X96515Y247942D01*
X95753Y248001D01*
X95781Y248178D01*
X95822Y248345D01*
X95877Y248503D01*
X95946Y248650D01*
X96028Y248787D01*
X96124Y248914D01*
X96234Y249031D01*
X96357Y249138D01*
X96636Y249317D01*
X96789Y249387D01*
X96952Y249445D01*
X97123Y249489D01*
X97304Y249521D01*
X97495Y249540D01*
X97694Y249547D01*
X97911Y249540D01*
X98116Y249521D01*
X98308Y249488D01*
X98488Y249443D01*
X98655Y249385D01*
X98810Y249313D01*
X98952Y249229D01*
X99082Y249132D01*
X99198Y249023D01*
X99299Y248904D01*
X99384Y248775D01*
X99453Y248636D01*
X99507Y248486D01*
X99546Y248326D01*
X99569Y248156D01*
X99577Y247976D01*
X99557Y247705D01*
X99497Y247461D01*
X99398Y247243D01*
X99259Y247052D01*
X99082Y246888D01*
X98869Y246753D01*
X98620Y246647D01*
X98335Y246569D01*
X98335Y246552D01*
X98649Y246498D01*
X98926Y246405D01*
X99167Y246274D01*
X99371Y246106D01*
X99533Y245907D01*
X99649Y245683D01*
X99718Y245435D01*
X99741Y245163D01*
X99733Y244963D01*
X99709Y244775D01*
X99668Y244599D01*
X99611Y244434D01*
X99537Y244281D01*
X99447Y244139D01*
X99341Y244009D01*
X99219Y243891D01*
X99081Y243785D01*
X98930Y243694D01*
X98765Y243616D01*
X98585Y243553D01*
X98392Y243504D01*
X98185Y243468D01*
X97963Y243447D01*
X97728Y243440D01*
G37*
G36*
X67199Y243524D02*
X66399Y243524D01*
X66399Y248801D01*
X64361Y248801D01*
X64361Y249458D01*
X69238Y249458D01*
X69238Y248801D01*
X67199Y248801D01*
X67199Y243524D01*
G37*
G36*
X104480Y243524D02*
X100762Y243524D01*
X100762Y244169D01*
X102274Y244169D01*
X102274Y248734D01*
X100934Y247778D01*
X100934Y248494D01*
X102337Y249458D01*
X103036Y249458D01*
X103036Y244169D01*
X104480Y244169D01*
X104480Y243524D01*
G37*
G36*
X57273Y218046D02*
X56909Y218053D01*
X56555Y218071D01*
X56211Y218102D01*
X55877Y218146D01*
X55553Y218202D01*
X55239Y218270D01*
X54935Y218351D01*
X54641Y218445D01*
X54357Y218551D01*
X54083Y218669D01*
X53565Y218943D01*
X53086Y219267D01*
X52648Y219640D01*
X52256Y220058D01*
X51916Y220514D01*
X51766Y220756D01*
X51629Y221008D01*
X51505Y221270D01*
X51394Y221541D01*
X51296Y221822D01*
X51211Y222112D01*
X51139Y222412D01*
X51080Y222721D01*
X51034Y223040D01*
X51001Y223369D01*
X50982Y223707D01*
X50975Y224055D01*
X50987Y224537D01*
X51023Y224999D01*
X51084Y225442D01*
X51168Y225863D01*
X51276Y226265D01*
X51409Y226646D01*
X51565Y227007D01*
X51746Y227348D01*
X51950Y227668D01*
X52178Y227965D01*
X52429Y228241D01*
X52703Y228495D01*
X53000Y228727D01*
X53321Y228938D01*
X53665Y229126D01*
X54032Y229292D01*
X54558Y227707D01*
X54296Y227592D01*
X54051Y227460D01*
X53821Y227312D01*
X53607Y227148D01*
X53409Y226967D01*
X53227Y226770D01*
X53061Y226557D01*
X52911Y226327D01*
X52778Y226084D01*
X52662Y225830D01*
X52564Y225565D01*
X52484Y225289D01*
X52422Y225001D01*
X52377Y224703D01*
X52351Y224393D01*
X52342Y224072D01*
X52362Y223574D01*
X52424Y223104D01*
X52527Y222663D01*
X52671Y222250D01*
X52857Y221866D01*
X53083Y221510D01*
X53351Y221183D01*
X53660Y220884D01*
X54005Y220617D01*
X54380Y220386D01*
X54786Y220190D01*
X55222Y220030D01*
X55689Y219906D01*
X56186Y219817D01*
X56714Y219763D01*
X57273Y219745D01*
X57826Y219764D01*
X58351Y219820D01*
X58849Y219912D01*
X59319Y220042D01*
X59761Y220209D01*
X60175Y220413D01*
X60562Y220654D01*
X60921Y220932D01*
X61244Y221242D01*
X61524Y221578D01*
X61761Y221940D01*
X61955Y222328D01*
X62106Y222742D01*
X62214Y223183D01*
X62279Y223650D01*
X62300Y224142D01*
X62290Y224461D01*
X62260Y224770D01*
X62210Y225069D01*
X62140Y225358D01*
X62049Y225637D01*
X61939Y225906D01*
X61809Y226164D01*
X61659Y226413D01*
X61488Y226651D01*
X61298Y226880D01*
X61087Y227098D01*
X60857Y227307D01*
X60606Y227505D01*
X60335Y227693D01*
X60045Y227872D01*
X59734Y228040D01*
X60417Y229406D01*
X60804Y229206D01*
X61166Y228987D01*
X61505Y228748D01*
X61821Y228490D01*
X62112Y228212D01*
X62379Y227916D01*
X62623Y227600D01*
X62843Y227265D01*
X63038Y226913D01*
X63207Y226547D01*
X63350Y226168D01*
X63467Y225775D01*
X63558Y225368D01*
X63623Y224947D01*
X63662Y224512D01*
X63675Y224063D01*
X63663Y223605D01*
X63627Y223162D01*
X63566Y222735D01*
X63481Y222324D01*
X63372Y221928D01*
X63239Y221548D01*
X63082Y221184D01*
X62900Y220836D01*
X62696Y220506D01*
X62471Y220195D01*
X62225Y219906D01*
X61959Y219636D01*
X61671Y219387D01*
X61363Y219158D01*
X61034Y218949D01*
X60684Y218760D01*
X60316Y218593D01*
X59931Y218448D01*
X59529Y218325D01*
X59111Y218225D01*
X58676Y218147D01*
X58225Y218091D01*
X57757Y218057D01*
X57273Y218046D01*
G37*
G36*
X63500Y231439D02*
X62160Y231439D01*
X62160Y234584D01*
X52666Y234584D01*
X54654Y231798D01*
X53165Y231798D01*
X51159Y234715D01*
X51159Y236169D01*
X62160Y236169D01*
X62160Y239173D01*
X63500Y239173D01*
X63500Y231439D01*
G37*
G36*
X84363Y133175D02*
X83905Y133187D01*
X83462Y133223D01*
X83035Y133284D01*
X82624Y133369D01*
X82228Y133478D01*
X81848Y133611D01*
X81484Y133768D01*
X81136Y133950D01*
X80806Y134154D01*
X80495Y134379D01*
X80206Y134625D01*
X79936Y134892D01*
X79687Y135179D01*
X79458Y135487D01*
X79249Y135816D01*
X79060Y136166D01*
X78893Y136534D01*
X78748Y136919D01*
X78625Y137321D01*
X78525Y137739D01*
X78447Y138174D01*
X78391Y138625D01*
X78357Y139093D01*
X78346Y139577D01*
X78353Y139941D01*
X78371Y140295D01*
X78402Y140639D01*
X78446Y140973D01*
X78502Y141297D01*
X78570Y141611D01*
X78651Y141915D01*
X78745Y142209D01*
X78851Y142493D01*
X78969Y142767D01*
X79243Y143285D01*
X79567Y143764D01*
X79940Y144202D01*
X80358Y144594D01*
X80814Y144934D01*
X81056Y145084D01*
X81308Y145221D01*
X81570Y145345D01*
X81841Y145456D01*
X82122Y145555D01*
X82412Y145639D01*
X82712Y145711D01*
X83021Y145770D01*
X83340Y145816D01*
X83669Y145849D01*
X84007Y145868D01*
X84355Y145875D01*
X84837Y145863D01*
X85299Y145827D01*
X85742Y145766D01*
X86163Y145682D01*
X86565Y145574D01*
X86946Y145441D01*
X87307Y145285D01*
X87648Y145104D01*
X87968Y144900D01*
X88265Y144672D01*
X88541Y144421D01*
X88795Y144147D01*
X89027Y143850D01*
X89238Y143529D01*
X89426Y143185D01*
X89592Y142818D01*
X88007Y142292D01*
X87892Y142554D01*
X87760Y142799D01*
X87612Y143029D01*
X87448Y143243D01*
X87267Y143441D01*
X87070Y143623D01*
X86857Y143789D01*
X86627Y143939D01*
X86384Y144073D01*
X86130Y144188D01*
X85865Y144286D01*
X85589Y144366D01*
X85301Y144428D01*
X85003Y144473D01*
X84693Y144499D01*
X84372Y144508D01*
X83874Y144488D01*
X83404Y144426D01*
X82963Y144323D01*
X82550Y144179D01*
X82166Y143993D01*
X81810Y143767D01*
X81483Y143499D01*
X81184Y143190D01*
X80917Y142845D01*
X80686Y142470D01*
X80490Y142064D01*
X80330Y141628D01*
X80206Y141161D01*
X80117Y140664D01*
X80063Y140136D01*
X80045Y139577D01*
X80064Y139024D01*
X80120Y138499D01*
X80212Y138001D01*
X80342Y137531D01*
X80509Y137089D01*
X80713Y136675D01*
X80954Y136288D01*
X81232Y135929D01*
X81542Y135606D01*
X81878Y135326D01*
X82240Y135089D01*
X82628Y134895D01*
X83042Y134744D01*
X83483Y134636D01*
X83950Y134571D01*
X84442Y134550D01*
X84761Y134560D01*
X85070Y134590D01*
X85369Y134640D01*
X85658Y134710D01*
X85937Y134801D01*
X86206Y134911D01*
X86464Y135041D01*
X86713Y135191D01*
X86951Y135362D01*
X87180Y135552D01*
X87398Y135763D01*
X87607Y135993D01*
X87805Y136244D01*
X87993Y136515D01*
X88172Y136805D01*
X88340Y137116D01*
X89706Y136433D01*
X89506Y136046D01*
X89287Y135684D01*
X89048Y135345D01*
X88790Y135029D01*
X88512Y134738D01*
X88216Y134471D01*
X87900Y134227D01*
X87565Y134007D01*
X87213Y133812D01*
X86847Y133643D01*
X86468Y133500D01*
X86075Y133383D01*
X85668Y133292D01*
X85247Y133227D01*
X84812Y133188D01*
X84363Y133175D01*
G37*
G36*
X99447Y133350D02*
X91275Y133350D01*
X91275Y134462D01*
X91511Y134960D01*
X91771Y135427D01*
X92056Y135864D01*
X92365Y136271D01*
X92691Y136654D01*
X93026Y137018D01*
X93368Y137363D01*
X93719Y137690D01*
X94425Y138302D01*
X95124Y138868D01*
X95787Y139411D01*
X96381Y139954D01*
X96648Y140229D01*
X96888Y140510D01*
X97101Y140798D01*
X97288Y141093D01*
X97439Y141400D01*
X97547Y141728D01*
X97612Y142075D01*
X97634Y142441D01*
X97624Y142688D01*
X97597Y142921D01*
X97550Y143139D01*
X97485Y143343D01*
X97401Y143533D01*
X97299Y143709D01*
X97178Y143871D01*
X97038Y144018D01*
X96882Y144149D01*
X96711Y144263D01*
X96526Y144359D01*
X96327Y144438D01*
X96112Y144500D01*
X95884Y144543D01*
X95640Y144570D01*
X95383Y144578D01*
X95137Y144570D01*
X94901Y144544D01*
X94677Y144501D01*
X94464Y144442D01*
X94262Y144365D01*
X94071Y144271D01*
X93892Y144159D01*
X93723Y144031D01*
X93568Y143887D01*
X93430Y143730D01*
X93309Y143558D01*
X93205Y143373D01*
X93118Y143174D01*
X93047Y142961D01*
X92994Y142734D01*
X92957Y142494D01*
X91345Y142643D01*
X91403Y143003D01*
X91489Y143345D01*
X91604Y143668D01*
X91747Y143972D01*
X91918Y144257D01*
X92118Y144523D01*
X92346Y144770D01*
X92602Y144999D01*
X92882Y145204D01*
X93181Y145382D01*
X93500Y145533D01*
X93838Y145656D01*
X94195Y145752D01*
X94572Y145820D01*
X94968Y145861D01*
X95383Y145875D01*
X95836Y145861D01*
X96262Y145820D01*
X96661Y145751D01*
X97033Y145655D01*
X97378Y145531D01*
X97696Y145380D01*
X97987Y145201D01*
X98251Y144994D01*
X98486Y144763D01*
X98690Y144508D01*
X98862Y144230D01*
X99003Y143929D01*
X99113Y143605D01*
X99191Y143258D01*
X99238Y142887D01*
X99254Y142494D01*
X99234Y142135D01*
X99172Y141778D01*
X99069Y141422D01*
X98926Y141066D01*
X98741Y140712D01*
X98517Y140357D01*
X98253Y140002D01*
X97949Y139647D01*
X97551Y139244D01*
X97005Y138743D01*
X96312Y138145D01*
X95470Y137449D01*
X94992Y137047D01*
X94566Y136666D01*
X94191Y136305D01*
X93868Y135964D01*
X93591Y135637D01*
X93355Y135315D01*
X93161Y135000D01*
X93009Y134690D01*
X99447Y134690D01*
X99447Y133350D01*
G37*
G36*
X274280Y242509D02*
X272403Y242509D01*
X272403Y246913D01*
X259104Y246913D01*
X261889Y243011D01*
X259804Y243011D01*
X256994Y247097D01*
X256994Y249133D01*
X272403Y249133D01*
X272403Y253341D01*
X274280Y253341D01*
X274280Y242509D01*
G37*
G36*
X269986Y228425D02*
X269606Y230719D01*
X269952Y230783D01*
X270278Y230864D01*
X270585Y230962D01*
X270873Y231078D01*
X271140Y231211D01*
X271389Y231361D01*
X271617Y231528D01*
X271826Y231713D01*
X272013Y231912D01*
X272175Y232124D01*
X272312Y232347D01*
X272424Y232584D01*
X272512Y232832D01*
X272574Y233093D01*
X272611Y233366D01*
X272624Y233651D01*
X272610Y233961D01*
X272569Y234255D01*
X272500Y234532D01*
X272405Y234792D01*
X272281Y235035D01*
X272130Y235261D01*
X271952Y235470D01*
X271747Y235663D01*
X271515Y235835D01*
X271257Y235985D01*
X270974Y236111D01*
X270666Y236215D01*
X270332Y236295D01*
X269972Y236353D01*
X269587Y236388D01*
X269177Y236399D01*
X258908Y236399D01*
X258908Y233074D01*
X256994Y233074D01*
X256994Y238730D01*
X269127Y238730D01*
X269739Y238709D01*
X270318Y238645D01*
X270863Y238538D01*
X271374Y238390D01*
X271852Y238198D01*
X272296Y237964D01*
X272707Y237687D01*
X273084Y237368D01*
X273422Y237012D01*
X273715Y236624D01*
X273962Y236205D01*
X274165Y235755D01*
X274323Y235273D01*
X274435Y234760D01*
X274503Y234215D01*
X274525Y233639D01*
X274508Y233104D01*
X274454Y232596D01*
X274366Y232117D01*
X274242Y231666D01*
X274082Y231242D01*
X273887Y230847D01*
X273657Y230479D01*
X273391Y230139D01*
X273089Y229827D01*
X272752Y229543D01*
X272380Y229287D01*
X271972Y229059D01*
X271529Y228859D01*
X271050Y228686D01*
X270536Y228541D01*
X269986Y228425D01*
G37*
G36*
X317623Y218046D02*
X317259Y218053D01*
X316905Y218071D01*
X316561Y218102D01*
X316227Y218146D01*
X315903Y218202D01*
X315589Y218270D01*
X315285Y218351D01*
X314991Y218445D01*
X314707Y218551D01*
X314433Y218669D01*
X313915Y218943D01*
X313436Y219267D01*
X312998Y219640D01*
X312606Y220058D01*
X312266Y220514D01*
X312116Y220756D01*
X311979Y221008D01*
X311855Y221270D01*
X311744Y221541D01*
X311646Y221822D01*
X311561Y222112D01*
X311489Y222412D01*
X311430Y222721D01*
X311384Y223040D01*
X311351Y223369D01*
X311332Y223707D01*
X311325Y224055D01*
X311337Y224537D01*
X311373Y224999D01*
X311434Y225442D01*
X311518Y225863D01*
X311626Y226265D01*
X311759Y226646D01*
X311915Y227007D01*
X312096Y227348D01*
X312300Y227668D01*
X312528Y227965D01*
X312779Y228241D01*
X313053Y228495D01*
X313350Y228727D01*
X313671Y228938D01*
X314015Y229126D01*
X314382Y229292D01*
X314908Y227707D01*
X314646Y227592D01*
X314401Y227460D01*
X314171Y227312D01*
X313957Y227148D01*
X313759Y226967D01*
X313577Y226770D01*
X313411Y226557D01*
X313261Y226327D01*
X313128Y226084D01*
X313012Y225830D01*
X312914Y225565D01*
X312834Y225289D01*
X312772Y225001D01*
X312727Y224703D01*
X312701Y224393D01*
X312692Y224072D01*
X312712Y223574D01*
X312774Y223104D01*
X312877Y222663D01*
X313021Y222250D01*
X313207Y221866D01*
X313433Y221510D01*
X313701Y221183D01*
X314010Y220884D01*
X314355Y220617D01*
X314730Y220386D01*
X315136Y220190D01*
X315572Y220030D01*
X316039Y219906D01*
X316536Y219817D01*
X317064Y219763D01*
X317623Y219745D01*
X318176Y219764D01*
X318701Y219820D01*
X319199Y219912D01*
X319669Y220042D01*
X320111Y220209D01*
X320525Y220413D01*
X320912Y220654D01*
X321271Y220932D01*
X321594Y221242D01*
X321874Y221578D01*
X322111Y221940D01*
X322305Y222328D01*
X322456Y222742D01*
X322564Y223183D01*
X322629Y223650D01*
X322650Y224142D01*
X322640Y224461D01*
X322610Y224770D01*
X322560Y225069D01*
X322490Y225358D01*
X322399Y225637D01*
X322289Y225906D01*
X322159Y226164D01*
X322009Y226413D01*
X321838Y226651D01*
X321648Y226880D01*
X321437Y227098D01*
X321207Y227307D01*
X320956Y227505D01*
X320685Y227693D01*
X320395Y227872D01*
X320084Y228040D01*
X320767Y229406D01*
X321154Y229206D01*
X321516Y228987D01*
X321855Y228748D01*
X322171Y228490D01*
X322462Y228212D01*
X322729Y227916D01*
X322973Y227600D01*
X323193Y227265D01*
X323388Y226913D01*
X323557Y226547D01*
X323700Y226168D01*
X323817Y225775D01*
X323908Y225368D01*
X323973Y224947D01*
X324012Y224512D01*
X324025Y224063D01*
X324013Y223605D01*
X323977Y223162D01*
X323916Y222735D01*
X323831Y222324D01*
X323722Y221928D01*
X323589Y221548D01*
X323432Y221184D01*
X323250Y220836D01*
X323046Y220506D01*
X322821Y220195D01*
X322575Y219906D01*
X322309Y219636D01*
X322021Y219387D01*
X321713Y219158D01*
X321384Y218949D01*
X321034Y218760D01*
X320666Y218593D01*
X320281Y218448D01*
X319879Y218325D01*
X319461Y218225D01*
X319026Y218147D01*
X318575Y218091D01*
X318107Y218057D01*
X317623Y218046D01*
G37*
G36*
X320679Y230756D02*
X320531Y232385D01*
X320796Y232433D01*
X321044Y232496D01*
X321275Y232576D01*
X321489Y232671D01*
X321685Y232783D01*
X321865Y232911D01*
X322027Y233055D01*
X322173Y233215D01*
X322301Y233391D01*
X322412Y233583D01*
X322506Y233792D01*
X322583Y234016D01*
X322643Y234256D01*
X322686Y234513D01*
X322712Y234785D01*
X322720Y235074D01*
X322711Y235364D01*
X322684Y235638D01*
X322638Y235895D01*
X322573Y236137D01*
X322491Y236363D01*
X322390Y236573D01*
X322271Y236766D01*
X322133Y236944D01*
X321978Y237103D01*
X321804Y237241D01*
X321613Y237358D01*
X321404Y237453D01*
X321177Y237527D01*
X320933Y237580D01*
X320671Y237612D01*
X320390Y237623D01*
X320146Y237611D01*
X319914Y237574D01*
X319697Y237514D01*
X319494Y237429D01*
X319304Y237320D01*
X319128Y237187D01*
X318966Y237029D01*
X318818Y236848D01*
X318686Y236643D01*
X318571Y236417D01*
X318474Y236170D01*
X318395Y235901D01*
X318333Y235610D01*
X318289Y235298D01*
X318262Y234965D01*
X318253Y234610D01*
X318253Y233716D01*
X316887Y233716D01*
X316887Y234575D01*
X316878Y234890D01*
X316852Y235187D01*
X316808Y235465D01*
X316746Y235725D01*
X316666Y235968D01*
X316569Y236192D01*
X316454Y236397D01*
X316322Y236585D01*
X316174Y236752D01*
X316013Y236897D01*
X315837Y237020D01*
X315649Y237120D01*
X315447Y237198D01*
X315231Y237254D01*
X315002Y237288D01*
X314759Y237299D01*
X314518Y237290D01*
X314290Y237262D01*
X314075Y237217D01*
X313873Y237153D01*
X313684Y237071D01*
X313508Y236971D01*
X313345Y236853D01*
X313195Y236716D01*
X313061Y236562D01*
X312944Y236390D01*
X312846Y236200D01*
X312765Y235993D01*
X312702Y235768D01*
X312657Y235525D01*
X312631Y235264D01*
X312622Y234986D01*
X312630Y234732D01*
X312655Y234490D01*
X312697Y234261D01*
X312755Y234044D01*
X312830Y233839D01*
X312922Y233647D01*
X313031Y233468D01*
X313156Y233300D01*
X313296Y233148D01*
X313450Y233012D01*
X313618Y232893D01*
X313800Y232791D01*
X313995Y232706D01*
X314204Y232638D01*
X314426Y232586D01*
X314662Y232552D01*
X314540Y230966D01*
X314171Y231024D01*
X313824Y231111D01*
X313497Y231225D01*
X313191Y231368D01*
X312906Y231539D01*
X312641Y231739D01*
X312398Y231967D01*
X312175Y232223D01*
X311976Y232503D01*
X311803Y232803D01*
X311657Y233121D01*
X311538Y233459D01*
X311445Y233816D01*
X311378Y234193D01*
X311339Y234589D01*
X311325Y235004D01*
X311339Y235455D01*
X311379Y235881D01*
X311447Y236280D01*
X311541Y236654D01*
X311662Y237002D01*
X311811Y237324D01*
X311986Y237620D01*
X312188Y237890D01*
X312414Y238131D01*
X312662Y238340D01*
X312931Y238517D01*
X313220Y238662D01*
X313532Y238774D01*
X313864Y238855D01*
X314217Y238903D01*
X314592Y238919D01*
X314881Y238909D01*
X315156Y238878D01*
X315417Y238826D01*
X315664Y238754D01*
X315897Y238661D01*
X316117Y238547D01*
X316323Y238413D01*
X316515Y238258D01*
X316692Y238083D01*
X316855Y237890D01*
X317003Y237677D01*
X317136Y237447D01*
X317253Y237197D01*
X317356Y236928D01*
X317444Y236641D01*
X317518Y236335D01*
X317553Y236335D01*
X317600Y236672D01*
X317666Y236989D01*
X317753Y237287D01*
X317859Y237566D01*
X317985Y237826D01*
X318131Y238066D01*
X318296Y238288D01*
X318481Y238490D01*
X318682Y238671D01*
X318896Y238827D01*
X319122Y238960D01*
X319361Y239068D01*
X319613Y239152D01*
X319877Y239212D01*
X320154Y239249D01*
X320443Y239261D01*
X320858Y239244D01*
X321249Y239193D01*
X321616Y239108D01*
X321958Y238989D01*
X322277Y238836D01*
X322571Y238650D01*
X322842Y238429D01*
X323088Y238175D01*
X323308Y237889D01*
X323498Y237574D01*
X323659Y237229D01*
X323791Y236856D01*
X323893Y236454D01*
X323967Y236023D01*
X324011Y235563D01*
X324025Y235074D01*
X324012Y234617D01*
X323972Y234184D01*
X323906Y233775D01*
X323814Y233389D01*
X323695Y233027D01*
X323550Y232689D01*
X323378Y232374D01*
X323180Y232083D01*
X322956Y231818D01*
X322707Y231581D01*
X322432Y231373D01*
X322132Y231193D01*
X321807Y231041D01*
X321456Y230918D01*
X321081Y230823D01*
X320679Y230756D01*
G37*
G36*
X313073Y-136175D02*
X312701Y-136167D01*
X312340Y-136141D01*
X311991Y-136098D01*
X311654Y-136037D01*
X311330Y-135960D01*
X311017Y-135865D01*
X310717Y-135753D01*
X310428Y-135623D01*
X310154Y-135478D01*
X309895Y-135316D01*
X309652Y-135139D01*
X309425Y-134947D01*
X309214Y-134739D01*
X309019Y-134515D01*
X308840Y-134276D01*
X308677Y-134021D01*
X308531Y-133752D01*
X308404Y-133470D01*
X308298Y-133176D01*
X308210Y-132869D01*
X308142Y-132549D01*
X308094Y-132217D01*
X308064Y-131873D01*
X308055Y-131516D01*
X308055Y-123659D01*
X309728Y-123659D01*
X309728Y-131376D01*
X309741Y-131785D01*
X309781Y-132170D01*
X309848Y-132529D01*
X309942Y-132862D01*
X310063Y-133170D01*
X310210Y-133453D01*
X310385Y-133710D01*
X310586Y-133942D01*
X310812Y-134147D01*
X311063Y-134325D01*
X311337Y-134475D01*
X311635Y-134599D01*
X311956Y-134694D01*
X312302Y-134763D01*
X312671Y-134804D01*
X313065Y-134818D01*
X313469Y-134803D01*
X313850Y-134761D01*
X314209Y-134690D01*
X314544Y-134591D01*
X314856Y-134464D01*
X315144Y-134308D01*
X315410Y-134124D01*
X315653Y-133911D01*
X315869Y-133671D01*
X316057Y-133406D01*
X316216Y-133114D01*
X316346Y-132795D01*
X316447Y-132451D01*
X316519Y-132081D01*
X316562Y-131684D01*
X316577Y-131262D01*
X316577Y-123659D01*
X318241Y-123659D01*
X318241Y-131358D01*
X318231Y-131726D01*
X318201Y-132081D01*
X318152Y-132423D01*
X318082Y-132753D01*
X317993Y-133069D01*
X317884Y-133373D01*
X317755Y-133664D01*
X317606Y-133942D01*
X317439Y-134205D01*
X317256Y-134453D01*
X317056Y-134684D01*
X316839Y-134900D01*
X316607Y-135099D01*
X316358Y-135283D01*
X316092Y-135450D01*
X315810Y-135602D01*
X315514Y-135736D01*
X315204Y-135853D01*
X314881Y-135951D01*
X314546Y-136032D01*
X314197Y-136094D01*
X313836Y-136139D01*
X313461Y-136166D01*
X313073Y-136175D01*
G37*
G36*
X328708Y-136000D02*
X320975Y-136000D01*
X320975Y-134660D01*
X324119Y-134660D01*
X324119Y-125166D01*
X321334Y-127154D01*
X321334Y-125665D01*
X324250Y-123659D01*
X325704Y-123659D01*
X325704Y-134660D01*
X328708Y-134660D01*
X328708Y-136000D01*
G37*
G36*
X421640Y153697D02*
X420300Y153697D01*
X420300Y156841D01*
X410806Y156841D01*
X412794Y154056D01*
X411305Y154056D01*
X409299Y156972D01*
X409299Y158426D01*
X420300Y158426D01*
X420300Y161431D01*
X421640Y161431D01*
X421640Y153697D01*
G37*
G36*
X415754Y26241D02*
X414976Y26259D01*
X414245Y26313D01*
X413559Y26403D01*
X412921Y26528D01*
X412329Y26690D01*
X411783Y26887D01*
X411284Y27120D01*
X410832Y27389D01*
X410430Y27691D01*
X410081Y28023D01*
X409786Y28386D01*
X409544Y28779D01*
X409357Y29203D01*
X409283Y29426D01*
X409223Y29657D01*
X409176Y29895D01*
X409142Y30141D01*
X409122Y30394D01*
X409115Y30656D01*
X409125Y30997D01*
X409155Y31322D01*
X409204Y31631D01*
X409272Y31923D01*
X409361Y32200D01*
X409469Y32460D01*
X409596Y32705D01*
X409744Y32933D01*
X409911Y33145D01*
X410097Y33341D01*
X410303Y33520D01*
X410529Y33684D01*
X410775Y33831D01*
X411040Y33963D01*
X411325Y34078D01*
X411629Y34177D01*
X411901Y32670D01*
X411547Y32537D01*
X411241Y32369D01*
X410983Y32167D01*
X410771Y31930D01*
X410606Y31659D01*
X410488Y31353D01*
X410418Y31013D01*
X410394Y30638D01*
X410414Y30310D01*
X410473Y30002D01*
X410571Y29712D01*
X410708Y29441D01*
X410885Y29190D01*
X411101Y28957D01*
X411356Y28744D01*
X411651Y28549D01*
X411983Y28376D01*
X412350Y28225D01*
X412752Y28098D01*
X413189Y27994D01*
X413662Y27913D01*
X414169Y27855D01*
X414712Y27821D01*
X415290Y27809D01*
X414915Y28046D01*
X414588Y28326D01*
X414309Y28650D01*
X414077Y29018D01*
X413895Y29422D01*
X413765Y29854D01*
X413720Y30081D01*
X413687Y30315D01*
X413667Y30556D01*
X413661Y30805D01*
X413678Y31220D01*
X413728Y31614D01*
X413811Y31986D01*
X413928Y32336D01*
X414078Y32664D01*
X414262Y32970D01*
X414479Y33254D01*
X414730Y33515D01*
X415008Y33750D01*
X415310Y33954D01*
X415634Y34126D01*
X415982Y34267D01*
X416353Y34377D01*
X416746Y34455D01*
X417163Y34502D01*
X417602Y34518D01*
X418078Y34502D01*
X418527Y34452D01*
X418951Y34369D01*
X419350Y34253D01*
X419722Y34104D01*
X420069Y33922D01*
X420390Y33707D01*
X420685Y33458D01*
X420950Y33181D01*
X421180Y32878D01*
X421374Y32550D01*
X421533Y32197D01*
X421656Y31819D01*
X421745Y31415D01*
X421798Y30987D01*
X421815Y30533D01*
X421809Y30276D01*
X421791Y30027D01*
X421718Y29552D01*
X421597Y29108D01*
X421428Y28694D01*
X421210Y28311D01*
X420943Y27958D01*
X420628Y27636D01*
X420265Y27345D01*
X419855Y27086D01*
X419402Y26862D01*
X418904Y26672D01*
X418362Y26517D01*
X417776Y26397D01*
X417146Y26310D01*
X416472Y26259D01*
X415754Y26241D01*
G37*
%LPC*%
G36*
X417296Y27967D02*
X417645Y27978D01*
X417977Y28011D01*
X418294Y28066D01*
X418594Y28143D01*
X418878Y28242D01*
X419147Y28363D01*
X419399Y28507D01*
X419634Y28672D01*
X419848Y28854D01*
X420033Y29049D01*
X420189Y29257D01*
X420317Y29477D01*
X420417Y29709D01*
X420488Y29954D01*
X420531Y30211D01*
X420545Y30480D01*
X420533Y30757D01*
X420497Y31019D01*
X420437Y31265D01*
X420354Y31496D01*
X420246Y31712D01*
X420114Y31912D01*
X419958Y32098D01*
X419779Y32267D01*
X419578Y32419D01*
X419360Y32551D01*
X419123Y32662D01*
X418869Y32753D01*
X418597Y32824D01*
X418307Y32875D01*
X417998Y32905D01*
X417672Y32915D01*
X417347Y32905D01*
X417041Y32874D01*
X416754Y32823D01*
X416486Y32751D01*
X416237Y32659D01*
X416007Y32546D01*
X415797Y32412D01*
X415605Y32258D01*
X415435Y32086D01*
X415287Y31898D01*
X415162Y31693D01*
X415060Y31472D01*
X414981Y31235D01*
X414924Y30982D01*
X414890Y30713D01*
X414878Y30428D01*
X414888Y30159D01*
X414919Y29903D01*
X414969Y29660D01*
X415039Y29431D01*
X415130Y29214D01*
X415241Y29011D01*
X415371Y28822D01*
X415522Y28646D01*
X415691Y28486D01*
X415874Y28349D01*
X416073Y28232D01*
X416287Y28136D01*
X416517Y28062D01*
X416761Y28009D01*
X417021Y27977D01*
X417296Y27967D01*
G37*
%LPD*%
G36*
X416683Y92787D02*
X416318Y92793D01*
X415963Y92812D01*
X415618Y92844D01*
X415283Y92888D01*
X414959Y92945D01*
X414644Y93015D01*
X414340Y93097D01*
X414045Y93192D01*
X413761Y93300D01*
X413487Y93420D01*
X413223Y93553D01*
X412969Y93698D01*
X412491Y94027D01*
X412054Y94407D01*
X411663Y94832D01*
X411487Y95060D01*
X411324Y95297D01*
X411174Y95544D01*
X411037Y95801D01*
X410913Y96068D01*
X410802Y96345D01*
X410705Y96632D01*
X410620Y96929D01*
X410548Y97235D01*
X410490Y97552D01*
X410444Y97879D01*
X410411Y98215D01*
X410392Y98562D01*
X410385Y98918D01*
X410397Y99381D01*
X410432Y99828D01*
X410491Y100260D01*
X410573Y100676D01*
X410678Y101077D01*
X410807Y101462D01*
X410959Y101831D01*
X411134Y102185D01*
X411332Y102521D01*
X411551Y102836D01*
X411791Y103131D01*
X412053Y103406D01*
X412335Y103660D01*
X412639Y103894D01*
X412964Y104107D01*
X413311Y104300D01*
X413676Y104471D01*
X414057Y104620D01*
X414454Y104746D01*
X414867Y104849D01*
X415297Y104929D01*
X415743Y104986D01*
X416205Y105020D01*
X416683Y105031D01*
X417159Y105020D01*
X417620Y104985D01*
X418067Y104927D01*
X418498Y104846D01*
X418914Y104742D01*
X419315Y104615D01*
X419701Y104465D01*
X420072Y104291D01*
X420425Y104096D01*
X420757Y103881D01*
X421068Y103646D01*
X421358Y103390D01*
X421626Y103115D01*
X421874Y102819D01*
X422100Y102503D01*
X422306Y102167D01*
X422488Y101814D01*
X422647Y101444D01*
X422781Y101059D01*
X422890Y100659D01*
X422976Y100242D01*
X423036Y99811D01*
X423073Y99363D01*
X423085Y98900D01*
X423073Y98433D01*
X423037Y97983D01*
X422977Y97548D01*
X422893Y97130D01*
X422784Y96728D01*
X422652Y96343D01*
X422495Y95973D01*
X422314Y95620D01*
X422111Y95286D01*
X421886Y94971D01*
X421640Y94677D01*
X421372Y94404D01*
X421082Y94151D01*
X420772Y93918D01*
X420439Y93706D01*
X420085Y93514D01*
X419713Y93344D01*
X419326Y93196D01*
X418923Y93071D01*
X418506Y92969D01*
X418073Y92889D01*
X417625Y92832D01*
X417161Y92798D01*
X416683Y92787D01*
G37*
%LPC*%
G36*
X416683Y94486D02*
X417248Y94504D01*
X417783Y94559D01*
X418289Y94651D01*
X418764Y94778D01*
X419209Y94943D01*
X419625Y95144D01*
X420010Y95381D01*
X420366Y95655D01*
X420685Y95962D01*
X420962Y96297D01*
X421196Y96660D01*
X421387Y97051D01*
X421536Y97471D01*
X421643Y97919D01*
X421706Y98396D01*
X421728Y98900D01*
X421707Y99419D01*
X421645Y99907D01*
X421542Y100363D01*
X421398Y100789D01*
X421213Y101183D01*
X420986Y101547D01*
X420718Y101879D01*
X420409Y102180D01*
X420063Y102448D01*
X419682Y102681D01*
X419268Y102877D01*
X418819Y103038D01*
X418336Y103163D01*
X417819Y103252D01*
X417268Y103306D01*
X416683Y103323D01*
X416122Y103305D01*
X415593Y103251D01*
X415094Y103161D01*
X414627Y103036D01*
X414190Y102874D01*
X413784Y102676D01*
X413409Y102442D01*
X413065Y102172D01*
X412758Y101869D01*
X412491Y101536D01*
X412265Y101174D01*
X412080Y100782D01*
X411936Y100361D01*
X411834Y99910D01*
X411772Y99429D01*
X411752Y98918D01*
X411772Y98403D01*
X411833Y97918D01*
X411934Y97464D01*
X412076Y97039D01*
X412258Y96645D01*
X412481Y96280D01*
X412744Y95946D01*
X413048Y95642D01*
X413388Y95371D01*
X413761Y95136D01*
X414167Y94938D01*
X414605Y94775D01*
X415075Y94649D01*
X415579Y94558D01*
X416114Y94504D01*
X416683Y94486D01*
G37*
%LPD*%
G36*
X422910Y52565D02*
X410569Y52565D01*
X410569Y56647D01*
X410575Y57033D01*
X410594Y57408D01*
X410625Y57772D01*
X410668Y58125D01*
X410723Y58466D01*
X410790Y58797D01*
X410870Y59116D01*
X410962Y59424D01*
X411067Y59721D01*
X411183Y60007D01*
X411312Y60281D01*
X411454Y60544D01*
X411607Y60796D01*
X411773Y61037D01*
X411951Y61267D01*
X412141Y61486D01*
X412343Y61692D01*
X412555Y61885D01*
X412778Y62065D01*
X413010Y62231D01*
X413254Y62384D01*
X413507Y62524D01*
X413771Y62650D01*
X414045Y62763D01*
X414330Y62863D01*
X414625Y62950D01*
X414930Y63023D01*
X415246Y63083D01*
X415572Y63129D01*
X415909Y63163D01*
X416255Y63182D01*
X416613Y63189D01*
X417083Y63178D01*
X417537Y63143D01*
X417978Y63084D01*
X418403Y63003D01*
X418813Y62898D01*
X419208Y62770D01*
X419589Y62619D01*
X419954Y62445D01*
X420302Y62249D01*
X420628Y62034D01*
X420934Y61799D01*
X421219Y61545D01*
X421482Y61271D01*
X421725Y60978D01*
X421947Y60666D01*
X422148Y60334D01*
X422327Y59986D01*
X422481Y59624D01*
X422612Y59250D01*
X422720Y58862D01*
X422803Y58462D01*
X422862Y58048D01*
X422898Y57621D01*
X422910Y57181D01*
X422910Y52565D01*
G37*
%LPC*%
G36*
X421570Y54238D02*
X421570Y56988D01*
X421561Y57322D01*
X421533Y57646D01*
X421486Y57960D01*
X421421Y58264D01*
X421337Y58557D01*
X421235Y58840D01*
X421114Y59112D01*
X420974Y59375D01*
X420817Y59625D01*
X420644Y59860D01*
X420454Y60080D01*
X420247Y60285D01*
X420025Y60475D01*
X419785Y60650D01*
X419530Y60810D01*
X419258Y60956D01*
X418971Y61085D01*
X418672Y61197D01*
X418360Y61292D01*
X418036Y61370D01*
X417699Y61430D01*
X417349Y61473D01*
X416987Y61499D01*
X416613Y61508D01*
X416056Y61488D01*
X415533Y61429D01*
X415045Y61331D01*
X414591Y61193D01*
X414170Y61017D01*
X413784Y60801D01*
X413432Y60545D01*
X413114Y60251D01*
X412831Y59919D01*
X412587Y59552D01*
X412380Y59150D01*
X412210Y58712D01*
X412079Y58240D01*
X411985Y57732D01*
X411928Y57189D01*
X411909Y56611D01*
X411909Y54238D01*
X421570Y54238D01*
G37*
%LPD*%
G36*
X422910Y107378D02*
X410569Y107378D01*
X410569Y109322D01*
X421150Y115996D01*
X419669Y115917D01*
X418662Y115891D01*
X410569Y115891D01*
X410569Y117397D01*
X422910Y117397D01*
X422910Y115383D01*
X412400Y108779D01*
X413249Y108823D01*
X414712Y108866D01*
X422910Y108866D01*
X422910Y107378D01*
G37*
G36*
X422910Y120315D02*
X410569Y120315D01*
X410569Y122259D01*
X421150Y128933D01*
X419669Y128855D01*
X418662Y128828D01*
X410569Y128828D01*
X410569Y130335D01*
X422910Y130335D01*
X422910Y128320D01*
X412400Y121716D01*
X413249Y121760D01*
X414712Y121804D01*
X422910Y121804D01*
X422910Y120315D01*
G37*
G36*
X416683Y79911D02*
X416319Y79917D01*
X415965Y79936D01*
X415621Y79967D01*
X415287Y80010D01*
X414963Y80066D01*
X414649Y80135D01*
X414345Y80216D01*
X414051Y80309D01*
X413767Y80415D01*
X413493Y80533D01*
X412975Y80807D01*
X412496Y81131D01*
X412058Y81505D01*
X411666Y81922D01*
X411326Y82378D01*
X411176Y82621D01*
X411039Y82873D01*
X410915Y83134D01*
X410804Y83405D01*
X410706Y83686D01*
X410621Y83976D01*
X410549Y84276D01*
X410490Y84586D01*
X410444Y84905D01*
X410411Y85233D01*
X410392Y85571D01*
X410385Y85919D01*
X410397Y86402D01*
X410433Y86864D01*
X410494Y87306D01*
X410578Y87728D01*
X410686Y88129D01*
X410819Y88511D01*
X410975Y88872D01*
X411156Y89212D01*
X411360Y89532D01*
X411588Y89830D01*
X411839Y90106D01*
X412113Y90360D01*
X412410Y90592D01*
X412731Y90802D01*
X413075Y90990D01*
X413442Y91157D01*
X413968Y89571D01*
X413706Y89456D01*
X413461Y89324D01*
X413231Y89176D01*
X413017Y89012D01*
X412819Y88831D01*
X412637Y88635D01*
X412471Y88421D01*
X412321Y88192D01*
X412188Y87949D01*
X412072Y87695D01*
X411974Y87429D01*
X411894Y87153D01*
X411832Y86865D01*
X411787Y86567D01*
X411761Y86257D01*
X411752Y85937D01*
X411772Y85438D01*
X411834Y84969D01*
X411937Y84528D01*
X412081Y84115D01*
X412267Y83731D01*
X412493Y83375D01*
X412761Y83047D01*
X413070Y82749D01*
X413415Y82482D01*
X413790Y82250D01*
X414196Y82055D01*
X414632Y81895D01*
X415099Y81770D01*
X415596Y81681D01*
X416124Y81628D01*
X416683Y81610D01*
X417236Y81628D01*
X417761Y81684D01*
X418259Y81777D01*
X418729Y81907D01*
X419171Y82073D01*
X419585Y82277D01*
X419972Y82519D01*
X420331Y82797D01*
X420654Y83106D01*
X420934Y83442D01*
X421171Y83804D01*
X421365Y84193D01*
X421516Y84607D01*
X421624Y85047D01*
X421689Y85514D01*
X421710Y86007D01*
X421700Y86326D01*
X421670Y86635D01*
X421620Y86934D01*
X421550Y87222D01*
X421459Y87501D01*
X421349Y87770D01*
X421219Y88029D01*
X421069Y88277D01*
X420898Y88516D01*
X420708Y88744D01*
X420497Y88963D01*
X420267Y89171D01*
X420016Y89370D01*
X419745Y89558D01*
X419455Y89736D01*
X419144Y89904D01*
X419827Y91271D01*
X420214Y91070D01*
X420576Y90851D01*
X420915Y90612D01*
X421231Y90354D01*
X421522Y90077D01*
X421789Y89780D01*
X422033Y89464D01*
X422253Y89129D01*
X422448Y88777D01*
X422617Y88412D01*
X422760Y88032D01*
X422877Y87639D01*
X422968Y87232D01*
X423033Y86811D01*
X423072Y86376D01*
X423085Y85928D01*
X423073Y85469D01*
X423037Y85027D01*
X422976Y84599D01*
X422891Y84188D01*
X422782Y83793D01*
X422649Y83413D01*
X422492Y83049D01*
X422310Y82700D01*
X422106Y82370D01*
X421881Y82060D01*
X421635Y81770D01*
X421369Y81500D01*
X421081Y81251D01*
X420773Y81022D01*
X420444Y80813D01*
X420094Y80625D01*
X419726Y80457D01*
X419341Y80312D01*
X418939Y80190D01*
X418521Y80089D01*
X418086Y80011D01*
X417635Y79955D01*
X417167Y79922D01*
X416683Y79911D01*
G37*
G36*
X422910Y30659D02*
X410569Y30659D01*
X410569Y39426D01*
X411936Y39426D01*
X411936Y32332D01*
X416525Y32332D01*
X416525Y39216D01*
X417909Y39216D01*
X417909Y32332D01*
X422910Y32332D01*
X422910Y30659D01*
G37*
G36*
X411936Y40528D02*
X410569Y40528D01*
X410569Y50670D01*
X411936Y50670D01*
X411936Y46431D01*
X422910Y46431D01*
X422910Y44767D01*
X411936Y44767D01*
X411936Y40528D01*
G37*
G36*
X422910Y65686D02*
X410569Y65686D01*
X410569Y67359D01*
X422910Y67359D01*
X422910Y65686D01*
G37*
G36*
X426475Y68760D02*
X425336Y68760D01*
X425336Y79209D01*
X426475Y79209D01*
X426475Y68760D01*
G37*
G36*
X62793Y392900D02*
X61841Y392900D01*
X61841Y400790D01*
X63246Y400790D01*
X65346Y395319D01*
X65562Y394611D01*
X65699Y394065D01*
X65768Y394347D01*
X65887Y394745D01*
X66080Y395319D01*
X68141Y400790D01*
X69513Y400790D01*
X69513Y392900D01*
X68550Y392900D01*
X68550Y398164D01*
X68562Y399021D01*
X68600Y399844D01*
X68340Y398951D01*
X68107Y398276D01*
X66069Y392900D01*
X65318Y392900D01*
X63252Y398276D01*
X62938Y399228D01*
X62754Y399844D01*
X62770Y399222D01*
X62793Y398164D01*
X62793Y392900D01*
G37*
G36*
X76250Y392900D02*
X71305Y392900D01*
X71305Y393757D01*
X73315Y393757D01*
X73315Y399827D01*
X71534Y398556D01*
X71534Y399508D01*
X73399Y400790D01*
X74329Y400790D01*
X74329Y393757D01*
X76250Y393757D01*
X76250Y392900D01*
G37*
G36*
X33174Y360505D02*
X32625Y360517D01*
X32105Y360554D01*
X31616Y360615D01*
X31155Y360701D01*
X30725Y360811D01*
X30324Y360946D01*
X29953Y361105D01*
X29611Y361289D01*
X29299Y361497D01*
X29017Y361730D01*
X28764Y361987D01*
X28541Y362269D01*
X28347Y362575D01*
X28184Y362905D01*
X28049Y363261D01*
X27945Y363640D01*
X29565Y363964D01*
X29645Y363696D01*
X29745Y363445D01*
X29864Y363213D01*
X30003Y363000D01*
X30162Y362805D01*
X30340Y362629D01*
X30538Y362471D01*
X30756Y362331D01*
X30994Y362209D01*
X31253Y362103D01*
X31532Y362013D01*
X31831Y361940D01*
X32152Y361883D01*
X32492Y361842D01*
X32853Y361818D01*
X33235Y361810D01*
X33629Y361819D01*
X33999Y361845D01*
X34346Y361888D01*
X34670Y361949D01*
X34971Y362027D01*
X35249Y362123D01*
X35504Y362236D01*
X35736Y362366D01*
X35942Y362513D01*
X36121Y362677D01*
X36272Y362856D01*
X36396Y363052D01*
X36492Y363265D01*
X36561Y363493D01*
X36602Y363738D01*
X36616Y363999D01*
X36599Y364287D01*
X36547Y364547D01*
X36461Y364778D01*
X36340Y364980D01*
X36188Y365161D01*
X36008Y365324D01*
X35800Y365471D01*
X35565Y365602D01*
X35303Y365720D01*
X35017Y365828D01*
X34708Y365926D01*
X34374Y366014D01*
X32841Y366373D01*
X32154Y366535D01*
X31554Y366697D01*
X31043Y366859D01*
X30621Y367021D01*
X30262Y367188D01*
X29943Y367364D01*
X29664Y367549D01*
X29425Y367744D01*
X29219Y367952D01*
X29039Y368176D01*
X28884Y368418D01*
X28755Y368677D01*
X28653Y368954D01*
X28581Y369250D01*
X28537Y369567D01*
X28523Y369903D01*
X28542Y370288D01*
X28599Y370650D01*
X28693Y370989D01*
X28826Y371306D01*
X28997Y371600D01*
X29205Y371872D01*
X29452Y372120D01*
X29736Y372346D01*
X30056Y372548D01*
X30408Y372722D01*
X30793Y372869D01*
X31211Y372990D01*
X31661Y373084D01*
X32144Y373151D01*
X32660Y373191D01*
X33209Y373205D01*
X33719Y373195D01*
X34198Y373164D01*
X34646Y373114D01*
X35063Y373044D01*
X35450Y372953D01*
X35805Y372843D01*
X36130Y372712D01*
X36423Y372561D01*
X36691Y372386D01*
X36938Y372182D01*
X37164Y371951D01*
X37369Y371691D01*
X37553Y371402D01*
X37717Y371085D01*
X37860Y370740D01*
X37982Y370367D01*
X36336Y370078D01*
X36260Y370315D01*
X36169Y370535D01*
X36063Y370738D01*
X35941Y370924D01*
X35805Y371094D01*
X35652Y371246D01*
X35485Y371382D01*
X35302Y371501D01*
X35102Y371605D01*
X34884Y371695D01*
X34648Y371771D01*
X34393Y371833D01*
X34120Y371881D01*
X33829Y371916D01*
X33519Y371937D01*
X33191Y371943D01*
X32832Y371936D01*
X32495Y371913D01*
X32180Y371875D01*
X31886Y371821D01*
X31615Y371752D01*
X31365Y371668D01*
X31137Y371568D01*
X30931Y371453D01*
X30749Y371323D01*
X30590Y371178D01*
X30456Y371017D01*
X30347Y370842D01*
X30262Y370652D01*
X30201Y370446D01*
X30164Y370226D01*
X30152Y369990D01*
X30171Y369718D01*
X30228Y369470D01*
X30322Y369247D01*
X30454Y369049D01*
X30622Y368870D01*
X30823Y368705D01*
X31058Y368554D01*
X31326Y368418D01*
X31681Y368282D01*
X32177Y368130D01*
X32815Y367964D01*
X33594Y367783D01*
X34728Y367516D01*
X35281Y367367D01*
X35810Y367192D01*
X36310Y366987D01*
X36778Y366750D01*
X36996Y366616D01*
X37199Y366467D01*
X37388Y366305D01*
X37562Y366128D01*
X37719Y365936D01*
X37858Y365727D01*
X37980Y365502D01*
X38083Y365261D01*
X38165Y365000D01*
X38224Y364718D01*
X38259Y364413D01*
X38271Y364087D01*
X38250Y363672D01*
X38188Y363281D01*
X38083Y362915D01*
X37937Y362572D01*
X37749Y362253D01*
X37520Y361959D01*
X37249Y361688D01*
X36935Y361442D01*
X36585Y361222D01*
X36199Y361032D01*
X35780Y360871D01*
X35327Y360739D01*
X34840Y360637D01*
X34319Y360563D01*
X33763Y360520D01*
X33174Y360505D01*
G37*
G36*
X48168Y360680D02*
X40434Y360680D01*
X40434Y362020D01*
X43578Y362020D01*
X43578Y371514D01*
X40793Y369526D01*
X40793Y371015D01*
X43710Y373021D01*
X45164Y373021D01*
X45164Y362020D01*
X48168Y362020D01*
X48168Y360680D01*
G37*
D10*
X132914Y234100D02*
X132914Y223100D01*
X146486Y223100D02*
X146486Y234100D01*
D11*
X101900Y241600D02*
X101900Y215600D01*
X101900Y241600D02*
X75900Y241600D01*
X75900Y215600D01*
X101900Y215600D01*
D12*
X107900Y213600D03*
D13*
X44386Y223100D02*
X44386Y234100D01*
X31814Y234100D02*
X31814Y223100D01*
D10*
X36400Y107738D02*
X36400Y89317D01*
X36400Y107738D02*
X57362Y128700D01*
X141400Y128700D01*
X141400Y89317D01*
X36400Y63083D02*
X36400Y44662D01*
X57362Y23700D01*
X141400Y23700D01*
X141400Y63083D01*
D14*
X325800Y189250D02*
X410800Y189250D01*
X325800Y189250D02*
X325800Y293350D01*
X410800Y293350D01*
X410800Y189250D01*
D10*
X285538Y281100D02*
X267117Y281100D01*
X285538Y281100D02*
X306500Y260138D01*
X306500Y176100D01*
X267117Y176100D01*
X240883Y281100D02*
X222462Y281100D01*
X201500Y260138D01*
X201500Y176100D01*
X240883Y176100D01*
D13*
X327100Y136200D02*
X327100Y-43800D01*
X327100Y-110800D01*
X183100Y-110800D01*
X183100Y-43800D01*
X183100Y136200D01*
X327100Y136200D01*
X327100Y-43800D02*
X183100Y-43800D01*
D15*
X333600Y95800D02*
X333602Y95863D01*
X333608Y95925D01*
X333618Y95987D01*
X333631Y96049D01*
X333649Y96109D01*
X333670Y96168D01*
X333695Y96226D01*
X333724Y96282D01*
X333756Y96336D01*
X333791Y96388D01*
X333829Y96437D01*
X333871Y96485D01*
X333915Y96529D01*
X333963Y96571D01*
X334012Y96609D01*
X334064Y96644D01*
X334118Y96676D01*
X334174Y96705D01*
X334232Y96730D01*
X334291Y96751D01*
X334351Y96769D01*
X334413Y96782D01*
X334475Y96792D01*
X334537Y96798D01*
X334600Y96800D01*
X334663Y96798D01*
X334725Y96792D01*
X334787Y96782D01*
X334849Y96769D01*
X334909Y96751D01*
X334968Y96730D01*
X335026Y96705D01*
X335082Y96676D01*
X335136Y96644D01*
X335188Y96609D01*
X335237Y96571D01*
X335285Y96529D01*
X335329Y96485D01*
X335371Y96437D01*
X335409Y96388D01*
X335444Y96336D01*
X335476Y96282D01*
X335505Y96226D01*
X335530Y96168D01*
X335551Y96109D01*
X335569Y96049D01*
X335582Y95987D01*
X335592Y95925D01*
X335598Y95863D01*
X335600Y95800D01*
X335598Y95737D01*
X335592Y95675D01*
X335582Y95613D01*
X335569Y95551D01*
X335551Y95491D01*
X335530Y95432D01*
X335505Y95374D01*
X335476Y95318D01*
X335444Y95264D01*
X335409Y95212D01*
X335371Y95163D01*
X335329Y95115D01*
X335285Y95071D01*
X335237Y95029D01*
X335188Y94991D01*
X335136Y94956D01*
X335082Y94924D01*
X335026Y94895D01*
X334968Y94870D01*
X334909Y94849D01*
X334849Y94831D01*
X334787Y94818D01*
X334725Y94808D01*
X334663Y94802D01*
X334600Y94800D01*
X334537Y94802D01*
X334475Y94808D01*
X334413Y94818D01*
X334351Y94831D01*
X334291Y94849D01*
X334232Y94870D01*
X334174Y94895D01*
X334118Y94924D01*
X334064Y94956D01*
X334012Y94991D01*
X333963Y95029D01*
X333915Y95071D01*
X333871Y95115D01*
X333829Y95163D01*
X333791Y95212D01*
X333756Y95264D01*
X333724Y95318D01*
X333695Y95374D01*
X333670Y95432D01*
X333649Y95491D01*
X333631Y95551D01*
X333618Y95613D01*
X333608Y95675D01*
X333602Y95737D01*
X333600Y95800D01*
D14*
X381000Y169926D02*
X406400Y169926D01*
X381000Y169926D02*
X381000Y147066D01*
X383540Y144526D01*
X381000Y141986D01*
X381000Y121666D01*
X383540Y119126D01*
X381000Y116586D01*
X381000Y96266D01*
X383540Y93726D01*
X381000Y91186D01*
X381000Y70866D01*
X383540Y68326D01*
X381000Y65786D01*
X381000Y45466D01*
X381000Y40386D02*
X381000Y17526D01*
X406400Y17526D01*
X406400Y40386D01*
X406400Y45466D02*
X406400Y65786D01*
X403860Y68326D01*
X406400Y70866D01*
X406400Y91186D01*
X403860Y93726D01*
X406400Y96266D01*
X406400Y116586D01*
X403860Y119126D01*
X406400Y121666D01*
X406400Y141986D01*
X403860Y144526D01*
X406400Y147066D01*
X406400Y169926D01*
X403860Y42926D02*
X406400Y40386D01*
X403860Y42926D02*
X406400Y45466D01*
X383540Y42926D02*
X381000Y40386D01*
X383540Y42926D02*
X381000Y45466D01*
X325900Y320400D02*
X105900Y320400D01*
X325900Y320400D02*
X325900Y467900D01*
X105900Y467900D01*
X105900Y320400D01*
X58420Y252730D02*
X17780Y252730D01*
X17780Y354330D02*
X58420Y354330D01*
X17780Y354330D02*
X17780Y322580D01*
X17780Y284480D01*
X17780Y252730D01*
X58420Y252730D02*
X58420Y354330D01*
X30480Y322580D02*
X30480Y284480D01*
X30480Y322580D02*
X45720Y322580D01*
X45720Y284480D01*
X30480Y284480D01*
X24130Y322580D02*
X17780Y322580D01*
X24130Y322580D02*
X24130Y284480D01*
X17780Y284480D01*
D16*
X38100Y294005D03*
M02*
