M48
;GenerationSoftware,Autodesk,EAGLE,9.7.0*%
;CreationDate,2025-04-09T23:08:18Z*%
FMAT,2
ICI,OFF
METRIC,TZ,000.000
T5C0.350
T4C0.800
T3C0.813
T2C1.000
T1C1.200
%
G90
M71
T1
X36830Y26670
X36830Y21590
T2
X21590Y33020
X24130Y33020
X26670Y33020
X19050Y33020
X16510Y33020
T3
X39370Y15723
X39370Y13183
X39370Y10643
X39370Y8103
X39370Y5563
X39370Y3023
X3810Y26543
X3810Y34163
T4
X21590Y9580
X24130Y9580
X26670Y9580
X29210Y9580
X29210Y12120
X26670Y12120
X24130Y12120
X21590Y12120
T5
X11430Y21590
X12700Y21590
X3810Y20320
M30